<svg width="447" height="196" viewBox="0 0 447 196" fill="none" xmlns="http://www.w3.org/2000/svg">
<path d="M151.168 20.279C148.395 18.1502 144.928 15.8729 141.858 14.1402C138.293 11.962 134.578 10.0807 130.765 8.44702C119.772 3.89246 107.688 1.56567 94.6146 1.56567C81.5409 1.56567 69.2596 3.84295 58.4144 8.44702C46.9749 13.3481 36.823 20.279 28.0576 29.3881C19.0447 38.6458 12.3098 49.141 7.85287 60.9235C3.0988 72.5574 0.721763 84.9835 0.672241 98.2016V98.4492C0.672241 112.063 3.0988 124.489 7.85287 135.628C11.9632 147.163 18.6486 157.757 27.9586 167.263C29.8404 169.144 31.7718 171.025 33.7526 172.758C41.0818 179.293 49.0053 184.392 57.4239 188.105C57.7706 188.253 58.1172 188.402 58.4144 188.55C69.1605 193.154 81.2438 195.58 94.6146 195.58C107.985 195.58 119.871 193.204 130.765 188.55C140.373 184.54 149.683 178.154 158.695 169.441C158.795 169.391 158.894 169.292 158.993 169.193C159.735 168.649 160.429 167.906 161.122 167.213C169.838 158.352 176.672 147.807 181.673 135.678C183.951 130.183 185.685 124.489 186.873 118.499C187.814 113.846 188.904 109.043 189.151 104.043C189.151 101.915 189.003 100.627 189.003 98.6967V98.4492C189.003 96.6174 189.102 94.7857 189.25 93.053C190.043 82.0131 193.707 72.3594 198.61 66.6662C204.651 59.6363 212.723 55.2798 223.668 55.2798C229.363 55.2798 234.513 56.0719 239.118 58.3492L239.713 58.6462C242.189 59.9334 244.071 61.072 246.151 63.0028C246.547 63.3493 248.577 65.1315 249.518 66.2207C251.202 68.2999 251.746 69.0425 252.539 70.3297L252.786 69.191C253.975 63.2008 255.758 58.0026 257.986 52.5075C263.335 39.1903 269.723 30.3782 278.389 21.5166L280.023 19.9324C277.002 17.7047 276.507 17.2591 273.387 15.3284C269.128 12.6055 264.771 10.3283 260.017 8.34802C249.023 3.79345 236.89 1.56567 223.767 1.56567C220.597 1.56567 217.428 1.71419 214.407 1.96172C204.8 2.80333 195.936 5.0311 187.616 8.54604C177.018 13.0511 167.609 19.3879 159.339 27.5564C158.646 28.1505 158.052 28.794 157.408 29.4871C148.395 38.7448 141.66 49.4381 137.203 61.27C132.4 72.904 130.171 84.9835 130.122 98.2016V98.4492C130.122 111.618 126.754 122.163 120.663 130.034C113.928 137.906 105.311 141.816 94.6146 141.816C90.851 141.816 87.3349 141.371 84.0665 140.331C78.4211 138.698 73.5184 135.529 69.4081 130.925C69.0615 130.678 68.8634 130.331 68.5663 130.034C62.4256 122.361 59.5534 112.063 59.5534 98.6967V98.3996C59.5534 84.7855 63.6636 73.1515 69.1605 66.6167C75.1526 59.4878 83.7199 55.2303 94.6146 55.2303C99.9629 55.2303 105.856 56.2699 110.561 58.7947C112.343 59.7354 113.185 60.1809 115.117 61.6661C117.345 63.3493 117.989 63.8939 120.316 66.5177C121.307 67.6563 122.248 68.993 123.089 70.3297C124.228 64.6365 125.813 59.1908 127.943 53.8441C132.102 42.7053 138.342 32.7545 146.513 23.9919C147.553 22.8533 148.791 21.8137 150.079 20.9226L151.218 20.2295L151.168 20.279Z" fill="#47B5FF"/>
<path d="M296.464 175.679C299.238 177.808 302.704 180.085 305.774 181.818C309.34 183.996 313.054 185.877 316.867 187.511C327.861 192.065 339.944 194.392 353.018 194.392C366.092 194.392 378.373 192.115 389.218 187.511C400.658 182.61 410.81 175.679 419.575 166.57C428.588 157.312 435.323 146.817 439.78 135.034C444.534 123.4 446.911 110.974 446.96 97.7562V97.5087C446.96 83.8945 444.534 71.4685 439.78 60.3296C435.669 48.7947 428.984 38.2004 419.674 28.6952C417.792 26.8139 415.861 24.9327 413.88 23.2C406.551 16.6652 398.627 11.5661 390.209 7.85311C389.862 7.70459 389.515 7.55607 389.218 7.40755C378.472 2.80349 366.389 0.377686 353.018 0.377686C339.647 0.377686 327.762 2.75398 316.867 7.40755C307.26 11.4175 297.95 17.8038 288.937 26.5169C288.838 26.5664 288.739 26.6654 288.64 26.7644C287.897 27.309 287.204 28.0516 286.511 28.7447C277.795 37.6063 270.961 48.1511 265.959 60.2801C263.681 65.7753 261.948 71.4685 260.759 77.4587C259.818 82.1123 258.729 86.9144 258.481 91.9145C258.481 94.0432 258.63 95.3304 258.63 97.2611V97.5087C258.63 99.3404 258.531 101.172 258.382 102.905C257.59 113.945 253.925 123.598 249.023 129.292C242.981 136.321 234.909 140.678 223.965 140.678C218.27 140.678 213.12 139.886 208.514 137.609L207.92 137.312C205.444 136.024 203.562 134.886 201.482 132.955C201.086 132.609 199.056 130.826 198.115 129.737C196.431 127.658 195.886 126.915 195.094 125.628L194.846 126.767C193.658 132.757 191.875 137.955 189.646 143.45C184.298 156.767 177.91 165.58 169.244 174.441L167.609 176.025C170.63 178.253 171.125 178.699 174.245 180.629C178.504 183.352 182.862 185.63 187.616 187.61C198.61 192.164 210.743 194.392 223.866 194.392C227.035 194.392 230.205 194.244 233.225 193.996C242.833 193.154 251.697 190.927 260.017 187.412C270.614 182.907 280.023 176.57 288.293 168.401C288.987 167.807 289.581 167.164 290.225 166.471C299.238 157.213 305.973 146.52 310.429 134.688C315.233 123.054 317.462 110.974 317.511 97.7562V97.5087C317.511 84.34 320.878 73.7952 326.97 65.9238C333.705 58.0523 342.321 54.1413 353.018 54.1413C356.782 54.1413 360.298 54.5869 363.566 55.6265C369.212 57.2602 374.114 60.4286 378.224 65.0327C378.571 65.2802 378.769 65.6267 379.066 65.9238C385.207 73.5972 388.079 83.8945 388.079 97.2611V97.5582C388.079 111.172 383.969 122.806 378.472 129.341C372.48 136.47 363.913 140.728 353.018 140.728C347.67 140.728 341.777 139.688 337.072 137.163C335.289 136.222 334.447 135.777 332.516 134.292C330.288 132.609 329.644 132.064 327.316 129.44C326.326 128.301 325.385 126.965 324.543 125.628C323.404 131.321 321.819 136.767 319.69 142.114C315.53 153.253 309.29 163.203 301.119 171.966C300.079 173.105 298.841 174.144 297.554 175.035L296.415 175.728L296.464 175.679Z" fill="#1363DF"/>
</svg>
