<?xml version="1.0" encoding="utf-8"?>
<!-- Generator: Adobe Illustrator 27.5.0, SVG Export Plug-In . SVG Version: 6.00 Build 0)  -->
<svg version="1.1" xmlns="http://www.w3.org/2000/svg" xmlns:xlink="http://www.w3.org/1999/xlink" x="0px" y="0px"
	 viewBox="0 0 500 500" style="enable-background:new 0 0 500 500;" xml:space="preserve">
<g id="Background_Simple">
	<g>
		<path style="fill:#0DD0FE;" d="M333.113,35.885c0,0-73.45-21.628-145.978,22.117c-72.528,43.745-109.517,125.324-141.25,190.777
			c-31.733,65.452-14.139,129.577,40.828,156.509c54.968,26.932,92.766-18.609,170.165-24.54
			c77.4-5.931,98.142,3.716,162.634-41.601s76.757-145.459,26.588-216.645S333.113,35.885,333.113,35.885z"/>
		<path style="opacity:0.7;fill:#FFFFFF;" d="M333.113,35.885c0,0-73.45-21.628-145.978,22.117
			c-72.528,43.745-109.517,125.324-141.25,190.777c-31.733,65.452-14.139,129.577,40.828,156.509
			c54.968,26.932,92.766-18.609,170.165-24.54c77.4-5.931,98.142,3.716,162.634-41.601s76.757-145.459,26.588-216.645
			S333.113,35.885,333.113,35.885z"/>
	</g>
</g>
<g id="Page">
	<g>
		<g>
			<polygon style="fill:#263238;" points="166.161,74.167 156.027,58 66.787,58 66.787,74.167 66.787,79.987 66.787,349 
				434.094,349 434.094,74.167 			"/>
			<g>
				<defs>
					<rect id="XMLID_73_" x="69.518" y="81.583" width="362.157" height="261.558"/>
				</defs>
				<use xlink:href="#XMLID_73_"  style="overflow:visible;fill:#FFFFFF;"/>
				<clipPath id="XMLID_00000103970586107056289040000016409408903150491010_">
					<use xlink:href="#XMLID_73_"  style="overflow:visible;"/>
				</clipPath>
				
					<rect x="425.04" y="79.34" style="opacity:0.17;clip-path:url(#XMLID_00000103970586107056289040000016409408903150491010_);" width="8.407" height="265.78"/>
				
					<rect x="425.04" y="240.037" style="opacity:0.17;clip-path:url(#XMLID_00000103970586107056289040000016409408903150491010_);" width="8.407" height="102.926"/>
				
					<rect x="68.08" y="78.047" style="clip-path:url(#XMLID_00000103970586107056289040000016409408903150491010_);fill:#0DD0FE;stroke:#263238;stroke-miterlimit:10;" width="364.073" height="14.227"/>
				
					<use xlink:href="#XMLID_73_"  style="overflow:visible;fill:none;stroke:#263238;stroke-linecap:round;stroke-linejoin:round;stroke-miterlimit:10;"/>
			</g>
			<g style="opacity:0.17;">
				<path d="M258.208,105.99h-25.336c-1.235,0-2.236-1.001-2.236-2.236l0,0c0-1.235,1.001-2.236,2.236-2.236h25.336
					c1.235,0,2.236,1.001,2.236,2.236l0,0C260.444,104.989,259.443,105.99,258.208,105.99z"/>
				<path d="M308.881,105.99h-25.336c-1.235,0-2.236-1.001-2.236-2.236l0,0c0-1.235,1.001-2.236,2.236-2.236h25.336
					c1.235,0,2.235,1.001,2.235,2.236l0,0C311.116,104.989,310.115,105.99,308.881,105.99z"/>
				<path d="M359.553,105.99h-25.336c-1.235,0-2.236-1.001-2.236-2.236l0,0c0-1.235,1.001-2.236,2.236-2.236h25.336
					c1.235,0,2.235,1.001,2.235,2.236l0,0C361.788,104.989,360.788,105.99,359.553,105.99z"/>
				<path d="M410.225,105.99h-25.336c-1.235,0-2.236-1.001-2.236-2.236l0,0c0-1.235,1.001-2.236,2.236-2.236h25.336
					c1.235,0,2.235,1.001,2.235,2.236l0,0C412.461,104.989,411.46,105.99,410.225,105.99z"/>
			</g>
		</g>
		<g>
			<g>
				<rect x="79.568" y="117.349" style="fill:none;stroke:#263238;stroke-miterlimit:10;" width="215.739" height="126.679"/>
				<g>
					<line style="fill:none;stroke:#263238;stroke-miterlimit:10;" x1="80.639" y1="257.081" x2="142.524" y2="257.081"/>
					<line style="fill:none;stroke:#263238;stroke-miterlimit:10;" x1="80.639" y1="270.132" x2="142.524" y2="270.132"/>
					<line style="fill:none;stroke:#263238;stroke-miterlimit:10;" x1="80.639" y1="283.184" x2="142.524" y2="283.184"/>
					<line style="fill:none;stroke:#263238;stroke-miterlimit:10;" x1="80.639" y1="296.236" x2="142.524" y2="296.236"/>
				</g>
			</g>
			<path style="fill:none;stroke:#263238;stroke-miterlimit:10;" d="M90.749,121.687c-3.951,0-7.153,3.202-7.153,7.153
				s3.202,7.153,7.153,7.153s7.153-3.202,7.153-7.153S94.7,121.687,90.749,121.687z M91.713,130.523l-3.075,1.775v-3.551v-3.551
				l3.075,1.776l3.075,1.775L91.713,130.523z"/>
		</g>
		<g>
			<rect x="306.823" y="117.349" style="fill:none;stroke:#263238;stroke-miterlimit:10;" width="95.969" height="76.775"/>
			<polygon style="fill:none;stroke:#263238;stroke-miterlimit:10;" points="402.793,171.457 388.205,156.505 369.779,165.718 
				335.23,136.543 306.823,167.442 306.823,194.125 402.793,194.125 			"/>
			<circle style="fill:none;stroke:#263238;stroke-miterlimit:10;" cx="370.931" cy="134.624" r="8.829"/>
		</g>
		<g>
			<rect x="306.823" y="210.248" style="fill:none;stroke:#263238;stroke-miterlimit:10;" width="95.969" height="76.775"/>
			<polygon style="fill:none;stroke:#263238;stroke-miterlimit:10;" points="402.793,264.355 388.205,249.403 369.779,258.616 
				335.23,229.441 306.823,260.34 306.823,287.023 402.793,287.023 			"/>
			
				<ellipse transform="matrix(0.1606 -0.987 0.987 0.1606 86.7826 557.0911)" style="fill:none;stroke:#263238;stroke-miterlimit:10;" cx="370.931" cy="227.522" rx="8.829" ry="8.829"/>
		</g>
	</g>
</g>
<g id="Plants">
	<g>
		<g>
			<g>
				<path style="fill:#0DD0FE;" d="M80.321,419.173c0,0-26.491-46.526-20.378-58.354c6.113-11.829,21.736,9.463,21.736,9.463
					s-13.585-43.371-6.113-62.297c7.472-18.926,20.377,0,21.057,13.406c0.679,13.406-2.717,36.274-2.717,36.274
					s5.434-47.314,18.34-33.12c12.906,14.194-16.302,61.508-16.302,61.508s19.698-11.04,19.019,3.154
					c-0.679,14.194-23.774,26.811-23.774,26.811"/>
				<path style="fill:none;stroke:#263238;stroke-miterlimit:10;" d="M80.547,410.499c0,0-24.515-22.868-12.572-33.12
					s18.229,11.04,18.229,11.04s-13.201-65.451,8.172-67.817c21.372-2.366,5.657,56.777,5.657,56.777s18.229-25.234,16.972-4.731
					c-1.257,20.503-28.287,37.851-28.287,37.851"/>
			</g>
			<line style="fill:none;stroke:#263238;stroke-miterlimit:10;" x1="92.589" y1="406.336" x2="76.02" y2="388.387"/>
			<line style="fill:none;stroke:#263238;stroke-miterlimit:10;" x1="89.137" y1="407.717" x2="93.624" y2="355.249"/>
			<line style="fill:none;stroke:#263238;stroke-miterlimit:10;" x1="88.446" y1="403.92" x2="103.289" y2="384.245"/>
		</g>
		<polygon style="fill:#263238;" points="109.915,400.26 64.089,400.26 68.672,454.311 105.332,454.311 		"/>
	</g>
</g>
<g id="Boxes">
	<g>
		<g>
			<polygon id="XMLID_72_" style="fill:#0DD0FE;stroke:#263238;stroke-miterlimit:10;" points="347.44,381.603 360.185,414.319 
				333.424,414.319 322.342,381.603 			"/>
			
				<rect id="XMLID_71_" x="289.342" y="361.772" style="fill:#FFFFFF;stroke:#263238;stroke-miterlimit:10;" width="42.304" height="38.809"/>
			
				<rect id="XMLID_70_" x="282.147" y="370.482" style="fill:#FFFFFF;stroke:#263238;stroke-miterlimit:10;" width="42.304" height="38.809"/>
			
				<rect id="XMLID_69_" x="271.165" y="378.055" style="fill:#FFFFFF;stroke:#263238;stroke-miterlimit:10;" width="42.304" height="38.809"/>
			
				<rect id="XMLID_68_" x="252.383" y="384.768" style="fill:#FFFFFF;stroke:#263238;stroke-miterlimit:10;" width="42.304" height="38.809"/>
			
				<rect id="XMLID_67_" x="251.066" y="381.603" style="fill:#0DD0FE;stroke:#263238;stroke-miterlimit:10;" width="96.439" height="72.707"/>
			
				<rect id="XMLID_66_" x="276.163" y="381.603" style="fill:#0DD0FE;stroke:#263238;stroke-miterlimit:10;" width="71.342" height="72.707"/>
			<polygon id="XMLID_65_" style="fill:#0DD0FE;stroke:#263238;stroke-miterlimit:10;" points="276.163,381.603 265.699,414.319 
				238.939,414.319 251.066,381.603 			"/>
			<g id="XMLID_61_">
				
					<rect id="XMLID_64_" x="288.274" y="395.295" style="fill:#FFFFFF;stroke:#263238;stroke-miterlimit:10;" width="44.009" height="45.15"/>
				<polygon id="XMLID_63_" style="fill:#263238;stroke:#263238;stroke-miterlimit:10;" points="332.283,428.477 324.039,419.899 
					316.81,424.084 304.128,411.909 288.401,424.465 288.274,424.754 288.274,440.445 332.283,440.445 				"/>
				<path id="XMLID_62_" style="fill:#263238;stroke:#263238;stroke-miterlimit:10;" d="M321.883,407.534
					c0,2.907-2.356,5.263-5.263,5.263s-5.263-2.357-5.263-5.263s2.357-5.263,5.263-5.263S321.883,404.627,321.883,407.534z"/>
			</g>
		</g>
		<g>
			
				<rect id="XMLID_60_" x="401.342" y="361.772" style="fill:#FFFFFF;stroke:#263238;stroke-miterlimit:10;" width="42.304" height="38.809"/>
			
				<rect id="XMLID_59_" x="394.147" y="370.482" style="fill:#FFFFFF;stroke:#263238;stroke-miterlimit:10;" width="42.304" height="38.809"/>
			
				<rect id="XMLID_58_" x="383.165" y="378.055" style="fill:#FFFFFF;stroke:#263238;stroke-miterlimit:10;" width="42.304" height="38.809"/>
			
				<rect id="XMLID_57_" x="364.383" y="384.768" style="fill:#FFFFFF;stroke:#263238;stroke-miterlimit:10;" width="42.304" height="38.809"/>
			
				<rect id="XMLID_56_" x="363.066" y="381.603" style="fill:#0DD0FE;stroke:#263238;stroke-miterlimit:10;" width="96.439" height="72.707"/>
			
				<rect id="XMLID_55_" x="388.163" y="381.603" style="fill:#0DD0FE;stroke:#263238;stroke-miterlimit:10;" width="71.342" height="72.707"/>
			<g>
				<g>
					<g>
						<path style="fill:#263238;" d="M421.026,388.504v0.571c-0.546,0-0.989,0.098-1.329,0.293c-0.34,0.196-0.664,0.562-0.972,1.097
							c-0.206,0.361-0.531,1.22-0.973,2.579l-5.838,16.881h-0.618l-4.772-13.39l-4.742,13.39h-0.556l-6.224-17.39
							c-0.464-1.297-0.757-2.064-0.881-2.301c-0.205-0.391-0.486-0.682-0.842-0.872c-0.355-0.191-0.836-0.286-1.444-0.286v-0.571
							h7.753v0.571h-0.37c-0.546,0-0.963,0.123-1.252,0.371c-0.289,0.247-0.432,0.545-0.432,0.895c0,0.361,0.226,1.189,0.68,2.487
							l4.124,11.753l3.475-9.993l-0.618-1.76l-0.494-1.406c-0.216-0.515-0.458-0.967-0.725-1.359
							c-0.134-0.195-0.299-0.36-0.494-0.494c-0.258-0.185-0.516-0.319-0.772-0.401c-0.196-0.062-0.505-0.093-0.927-0.093v-0.571
							h8.155v0.571h-0.557c-0.576,0-0.999,0.123-1.266,0.371c-0.268,0.247-0.401,0.582-0.401,1.004c0,0.525,0.231,1.441,0.695,2.749
							l4.016,11.382l3.984-11.537c0.453-1.277,0.68-2.162,0.68-2.657c0-0.237-0.075-0.458-0.224-0.664
							c-0.15-0.205-0.338-0.349-0.564-0.433c-0.391-0.144-0.901-0.216-1.529-0.216v-0.571H421.026z"/>
					</g>
					<line style="fill:none;stroke:#263238;stroke-miterlimit:10;" x1="422.666" y1="392.455" x2="447.779" y2="392.455"/>
					<line style="fill:none;stroke:#263238;stroke-miterlimit:10;" x1="422.666" y1="398.278" x2="447.779" y2="398.278"/>
					<line style="fill:none;stroke:#263238;stroke-miterlimit:10;" x1="422.666" y1="404.101" x2="447.779" y2="404.101"/>
				</g>
				<line style="fill:none;stroke:#263238;stroke-miterlimit:10;" x1="422.666" y1="409.924" x2="447.779" y2="409.924"/>
			</g>
		</g>
		<g>
			
				<rect id="XMLID_54_" x="364.383" y="312.089" style="fill:#FFFFFF;stroke:#263238;stroke-miterlimit:10;" width="42.304" height="38.809"/>
			
				<rect id="XMLID_53_" x="363.066" y="308.924" style="fill:#0DD0FE;stroke:#263238;stroke-miterlimit:10;" width="96.439" height="72.707"/>
			
				<rect id="XMLID_52_" x="388.163" y="308.924" style="fill:#0DD0FE;stroke:#263238;stroke-miterlimit:10;" width="71.342" height="72.707"/>
			<g id="XMLID_48_">
				
					<rect id="XMLID_51_" x="400.274" y="322.616" style="fill:#FFFFFF;stroke:#263238;stroke-miterlimit:10;" width="44.009" height="45.15"/>
				<polygon id="XMLID_50_" style="fill:#263238;stroke:#263238;stroke-miterlimit:10;" points="444.283,355.798 436.039,347.22 
					428.81,351.405 416.128,339.23 400.401,351.785 400.274,352.074 400.274,367.766 444.283,367.766 				"/>
				<path id="XMLID_49_" style="fill:#263238;stroke:#263238;stroke-miterlimit:10;" d="M433.883,334.854
					c0,2.907-2.356,5.263-5.263,5.263s-5.263-2.357-5.263-5.263s2.357-5.263,5.263-5.263S433.883,331.947,433.883,334.854z"/>
			</g>
		</g>
	</g>
</g>
<g id="Character">
	<g>
		<path id="XMLID_47_" style="fill:#FFFFFF;stroke:#263238;stroke-miterlimit:10;" d="M284.741,177.492l25.277,39.762l-33.798-0.284
			c0,0,0.852-32.946,1.704-36.638C278.776,176.64,283.889,176.356,284.741,177.492z"/>
		<g id="XMLID_39_">
			
				<rect id="XMLID_46_" x="132.732" y="209.529" transform="matrix(0.9979 0.0653 -0.0653 0.9979 17.8442 -14.7535)" style="fill:#0DD0FE;stroke:#263238;stroke-miterlimit:10;" width="203.733" height="112.095"/>
			
				<rect id="XMLID_45_" x="129.687" y="302.681" transform="matrix(0.9979 0.0653 -0.0653 0.9979 20.8761 -14.4553)" style="fill:#FFFFFF;stroke:#263238;stroke-miterlimit:10;" width="203.733" height="18.844"/>
			
				<rect id="XMLID_44_" x="134.865" y="309.834" transform="matrix(0.9979 0.0653 -0.0653 0.9979 20.8808 -14.4549)" style="fill:#263238;" width="193.368" height="4.682"/>
			<path id="XMLID_43_" style="fill:#FFFFFF;stroke:#263238;stroke-miterlimit:10;" d="M140.035,306.243
				c0.08-1.217-0.842-2.267-2.059-2.347c-1.217-0.08-2.268,0.842-2.347,2.059c-0.08,1.217,0.842,2.268,2.059,2.347
				C138.904,308.382,139.955,307.46,140.035,306.243z"/>
			<g id="XMLID_40_">
				
					<path id="XMLID_42_" style="fill:#263238;stroke:#263238;stroke-linecap:round;stroke-linejoin:round;stroke-miterlimit:10;" d="
					M163.051,220.723c-0.395,6.028-5.601,10.595-11.629,10.2c-6.028-0.395-10.595-5.601-10.2-11.629
					c0.395-6.028,5.601-10.595,11.629-10.2C158.878,209.489,163.445,214.695,163.051,220.723z"/>
				<polygon id="XMLID_41_" style="fill:#0DD0FE;" points="147.817,213.233 158.592,220.431 146.97,226.164 				"/>
			</g>
		</g>
		<g>
			<g>
				<g>
					<path id="XMLID_38_" style="fill:#FFFFFF;stroke:#263238;stroke-miterlimit:10;" d="M215.245,130.17
						c0,0-4.207,11.78-3.927,14.024c0.28,2.244,1.402,3.085,0,4.488c-1.402,1.402-5.89,4.768-5.329,6.731
						c0.561,1.963,3.366,4.207,3.366,4.207s3.085,12.341,6.17,13.743c3.085,1.402,7.853,0.28,7.853,0.28l3.366,8.975l23.56-5.89
						l-1.402-14.304c0,0,7.012-13.463,5.329-21.596c-1.683-8.134-16.268-15.987-25.804-15.987S216.087,127.926,215.245,130.17z"/>
					<path id="XMLID_37_" style="fill:none;stroke:#263238;stroke-miterlimit:10;" d="M215.397,163.004c0,0,3.675-0.479,4.794-2.717
						"/>
					<path id="XMLID_36_" style="fill:#263238;" d="M215.716,148.622c0,0.971-0.322,1.758-0.719,1.758
						c-0.397,0-0.719-0.787-0.719-1.758c0-0.971,0.322-1.758,0.719-1.758C215.395,146.865,215.716,147.652,215.716,148.622z"/>
					<path id="XMLID_35_" style="fill:none;stroke:#263238;stroke-miterlimit:10;" d="M213.959,144.628c0,0,2.077-2.557,3.356,0.639
						"/>
				</g>
				<path id="XMLID_34_" style="fill:#263238;stroke:#263238;stroke-miterlimit:10;" d="M220.855,134.658
					c0,0-9.256,0.561-9.817-8.134c-0.561-8.695,12.06-13.463,16.828-13.463c4.768,0,1.402,4.768,1.402,4.768
					s11.78-3.366,14.865-0.281s0.561,5.609,0.561,5.609s15.426,6.451,15.426,17.67s-8.134,22.157-9.536,24.401
					c-1.402,2.244-4.768,4.207-10.938,4.488c-6.171,0.281-9.817-2.805-11.219-7.012c-1.402-4.207-1.402-4.207-1.402-4.207
					s4.768-5.048,2.524-9.256c-2.244-4.207-3.646-1.683-4.207,0c-0.561,1.683,0.561,3.366-0.561,3.366s-0.28-1.402-3.366-4.488
					c-3.085-3.085-5.61-4.488-4.488-7.573C218.05,137.462,220.855,134.658,220.855,134.658z"/>
			</g>
			<polygon id="XMLID_33_" style="fill:#FFFFFF;stroke:#263238;stroke-miterlimit:10;" points="220.023,181.256 216.68,188.647 
				259.263,178.969 254.336,172.81 			"/>
		</g>
		<path id="XMLID_32_" style="fill:#FFFFFF;stroke:#263238;stroke-miterlimit:10;" d="M186.917,263.118
			c0,0-8.605,12.908-11.951,19.6c-3.346,6.693-12.898,19.83-15.129,21.104c-2.231,1.275-9.242,0.637-9.88,1.116
			c-0.637,0.478-6.055,6.533-7.49,8.286c-1.434,1.753,0.319,2.39,1.594,2.55c1.275,0.159,2.709-0.638,4.302-2.072
			c1.594-1.434,3.187-1.434,3.825-1.594c0.637-0.159-4.303,6.693-4.143,7.808c0.159,1.116,2.072,2.55,3.187,2.39
			c1.115-0.159,3.984-2.231,3.984-2.231s7.968,1.115,10.358-0.797c2.39-1.912,5.737-12.748,6.374-14.182
			c0.637-1.434,18.634-17.917,25.486-23.335c6.852-5.418,10.995-10.358,10.995-14.501
			C208.43,263.118,186.917,263.118,186.917,263.118z"/>
		<g id="XMLID_29_">
			<path id="XMLID_31_" style="fill:#FFFFFF;stroke:#263238;stroke-miterlimit:10;" d="M237.121,434.051c0,0-12.686,3.03-20.07,3.03
				c-7.384,0-10.603-0.379-10.603,2.083c0,2.461,11.739,7.006,18.556,9.656c6.816,2.651,20.07,6.438,21.206,6.059
				c1.136-0.379,3.408-14.201,3.408-14.201L237.121,434.051z"/>
			<path id="XMLID_30_" style="fill:#263238;stroke:#263238;stroke-miterlimit:10;" d="M207.203,437.718
				c-0.504,0.314-0.755,0.77-0.755,1.445c0,2.461,11.739,7.006,18.555,9.656c6.816,2.651,20.07,6.438,21.206,6.059
				c0.26-0.087,0.579-0.88,0.917-2.045C233.866,450.192,212.671,440.327,207.203,437.718z"/>
		</g>
		<path id="XMLID_28_" style="fill:#263238;stroke:#263238;stroke-miterlimit:10;" d="M214.4,272.163c0,0-0.189,14.769,1.136,27.455
			c1.325,12.686,7.384,68.353,7.952,77.062c0.568,8.71,13.633,57.371,13.633,57.371l12.497,6.627c0,0,6.248-54.152,6.248-63.24
			c0-9.088,0-15.147,0-15.147s10.982-42.981,14.39-53.205c3.408-10.225,5.112-30.484,4.733-41.845c0,0-13.633,5.87-31.242,6.627
			C226.139,274.625,214.4,272.163,214.4,272.163z"/>
		<g>
			<path id="XMLID_27_" style="fill:#FFFFFF;stroke:#263238;stroke-miterlimit:10;" d="M283.605,193.681l-5.112,40.898
				c0,0-1.988,30.957-2.556,33.798c-0.568,2.84-3.124,4.26-14.769,8.236c-11.644,3.976-43.17,1.136-45.726-1.42
				c-2.556-2.556-3.124-27.549-3.124-27.549s-3.408,14.485-5.964,16.473c-2.556,1.988-12.213,1.136-16.757-3.124
				c-4.544-4.26,0.852-53.111,0.568-57.655c-0.284-4.544,27.833-15.621,27.833-15.621s39.076-8.975,41.265-8.748
				c2.189,0.228,23.774-4.317,25.478-1.477c1.704,2.84,2.84,4.544,2.84,4.544"/>
			
				<line id="XMLID_26_" style="fill:none;stroke:#263238;stroke-miterlimit:10;" x1="212.317" y1="247.643" x2="204.649" y2="210.438"/>
			<line style="fill:none;stroke:#263238;stroke-miterlimit:10;" x1="253.807" y1="196.538" x2="236.153" y2="249.499"/>
			<line style="fill:none;stroke:#263238;stroke-miterlimit:10;" x1="248.992" y1="231.043" x2="236.153" y2="263.141"/>
		</g>
		<path id="XMLID_13_" style="fill:#FFFFFF;stroke:#263238;stroke-miterlimit:10;" d="M187.555,249.095c0,0-0.637,0.797-0.637,2.072
			s-2.55,11.473-1.434,13.545c1.116,2.071,5.737,4.78,13.226,5.099c7.49,0.319,10.358-0.797,10.995-2.709
			c0.637-1.912,2.39-11.314,2.231-12.429c-0.159-1.115-1.115-0.478-1.115-0.478s-7.171,1.753-14.66-0.797
			C188.67,250.848,187.555,249.095,187.555,249.095z"/>
		<g>
			<path id="XMLID_12_" style="fill:#263238;stroke:#263238;stroke-miterlimit:10;" d="M215.347,282.956
				c0,0,0.379,31.81,1.136,50.555c0.757,18.745,3.787,35.028,4.923,38.815c1.136,3.787,26.887,36.732,32.756,43.738
				c5.87,7.006,17.23,17.609,17.23,17.609l12.824-7.006c0,0-16.61-23.668-21.912-34.65c-5.302-10.982-14.579-29.159-14.579-29.159
				l5.87-52.448l9.657-5.302"/>
			<polyline style="fill:none;stroke:#696969;stroke-miterlimit:10;" points="261.177,307.683 253.274,312.952 247.724,362.858 
				255.866,377.438 			"/>
		</g>
		<g id="XMLID_6_">
			<path id="XMLID_11_" style="fill:#FFFFFF;stroke:#263238;stroke-miterlimit:10;" d="M271.602,433.184
				c0,0-6.097,9.04-8.409,11.142c-2.313,2.102-11.352,7.568-12.614,8.829c-1.261,1.261,5.676,2.313,10.722,2.313
				c5.045,0,11.352-1.051,14.506-2.943c3.153-1.892,14.926-10.301,16.398-11.773c1.471-1.472-7.989-14.085-7.989-14.085
				L271.602,433.184z"/>
			<path id="XMLID_10_" style="fill:#263238;stroke:#263238;stroke-miterlimit:10;" d="M292.204,440.752
				c0.501-0.501-0.267-2.296-1.496-4.444c-4.603,4.837-14.781,15.145-19.106,16.427c-4.746,1.406-16.832,0.462-20.67,0.114
				c-0.148,0.119-0.269,0.223-0.353,0.307c-1.261,1.261,5.676,2.312,10.722,2.312c5.045,0,11.352-1.051,14.506-2.943
				C278.96,450.633,290.733,442.224,292.204,440.752z"/>
		</g>
	</g>
</g>
<g id="Floor">
	<line style="fill:none;stroke:#263238;stroke-miterlimit:10;" x1="481" y1="454.311" x2="48.902" y2="454.311"/>
</g>
</svg>
