<svg width="758" height="332" viewBox="0 0 758 332" fill="none" xmlns="http://www.w3.org/2000/svg">
<path d="M53.5219 137.712L57.1375 128.361L56.6392 128.041C55.4941 129.352 54.2218 130.525 52.8222 131.549C51.4226 132.572 49.9275 133.447 48.3477 134.161C46.7679 134.876 45.114 135.419 43.3963 135.793C41.6786 136.155 39.961 136.347 38.2434 136.347C33.4827 136.347 29.3158 135.494 25.7426 133.799C22.1695 132.103 19.2007 129.768 16.815 126.814C14.4294 123.85 12.6376 120.342 11.4395 116.301C10.2308 112.249 9.62631 107.888 9.62631 103.217C9.62631 98.9736 10.2625 95.1776 11.5243 91.8507C12.786 88.5239 14.5567 85.7089 16.8363 83.4164C19.1159 81.1238 21.8302 79.3751 24.9899 78.1702C28.1495 76.9653 31.6378 76.3575 35.4336 76.3575C39.2294 76.3575 43.004 77.0186 46.3015 78.3302C49.5989 79.6417 52.4299 81.4011 54.7731 83.5976L55.176 83.4164L52.1012 74.9393C47.1284 73.1373 41.7316 72.231 35.9213 72.231C32.1891 72.231 28.7114 72.6681 25.4988 73.5425C22.2861 74.4169 19.3491 75.6324 16.6878 77.1892C14.0159 78.746 11.6515 80.5907 9.57337 82.7126C7.49523 84.8345 5.7457 87.1697 4.33553 89.6968C2.91475 92.2346 1.84395 94.911 1.10176 97.7154C0.35956 100.53 -0.000976562 103.388 -0.000976562 106.288C-0.000976562 111.417 0.921461 116.088 2.77695 120.289C4.63244 124.49 7.21947 128.083 10.5487 131.08C13.878 134.076 17.8541 136.39 22.4769 138.021C27.0997 139.653 32.1997 140.474 37.7768 140.474C40.5441 140.474 43.3009 140.239 46.0258 139.759C48.7507 139.29 51.2423 138.608 53.5007 137.723L53.5219 137.712Z" fill="#EDE8E4"/>
<path d="M66.5834 136.134C69.4461 138.629 73.4964 139.866 78.7447 139.866C80.3458 139.866 81.809 139.717 83.1555 139.429C84.4915 139.141 85.7214 138.757 86.8135 138.288C87.9161 137.819 88.8916 137.286 89.7505 136.71C90.6093 136.134 91.3515 135.569 91.9876 135.015C91.924 135.868 91.8605 136.603 91.7862 137.211C91.712 137.819 91.5953 138.373 91.4469 138.864V139.045H101.435V138.864C101.255 138.224 101.085 137.424 100.915 136.475C100.746 135.526 100.618 134.353 100.512 132.946C100.406 131.538 100.311 129.864 100.237 127.924C100.162 125.983 100.12 123.712 100.12 121.121V106.182C100.12 104.103 99.7913 102.151 99.1233 100.339C98.4553 98.526 97.4163 96.9373 95.9849 95.5724C94.5535 94.2182 92.7192 93.1413 90.4714 92.3629C88.2236 91.5845 85.52 91.1899 82.3603 91.1899C81.2152 91.1899 80.1231 91.2326 79.084 91.3072C78.0449 91.3819 77.027 91.5098 76.0304 91.7018C75.0337 91.883 74.0584 92.1176 73.0935 92.4162C72.1287 92.7041 71.1532 93.0773 70.1565 93.5358L67.0817 99.9975L67.5375 100.275C68.9795 99.1445 70.3367 98.2168 71.5879 97.4811C72.839 96.7453 74.0265 96.1695 75.161 95.743C76.2955 95.3165 77.3875 95.0073 78.4372 94.826C79.4869 94.6447 80.5578 94.5488 81.6499 94.5488C83.2191 94.5488 84.6504 94.7833 85.9652 95.2632C87.2799 95.7323 88.3933 96.4574 89.3369 97.4171C90.27 98.3768 90.991 99.5923 91.5105 101.064C92.0195 102.535 92.2739 104.273 92.2739 106.289V108.624C90.4608 108.656 88.4781 108.752 86.3045 108.922C84.131 109.093 81.9362 109.392 79.7096 109.839C77.4831 110.287 75.3306 110.895 73.2418 111.673C71.1637 112.452 69.3082 113.465 67.686 114.723C66.0637 115.981 64.7597 117.485 63.7736 119.265C62.7982 121.035 62.2998 123.136 62.2998 125.546C62.2998 130.131 63.7312 133.671 66.594 136.156L66.5834 136.134ZM72.9768 118.402C74.1325 116.706 75.6911 115.395 77.6314 114.478C79.5717 113.561 81.809 112.953 84.3431 112.665C86.8771 112.377 89.5066 112.217 92.2527 112.185V125.962C92.2527 127.38 92.2209 128.67 92.1573 129.832C91.8286 130.536 91.3409 131.261 90.7153 132.008C90.0792 132.754 89.3051 133.447 88.3826 134.066C87.4602 134.695 86.4105 135.207 85.223 135.622C84.0355 136.038 82.7102 136.241 81.2682 136.241C78.1298 136.241 75.6805 135.292 73.8992 133.404C72.1179 131.506 71.2274 128.755 71.2274 125.151C71.2274 122.336 71.8106 120.086 72.9663 118.391L72.9768 118.402Z" fill="#EDE8E4"/>
<path d="M135.512 132.241C136.053 130.759 136.328 129.234 136.328 127.677C136.328 125.747 135.873 123.956 134.95 122.293C134.028 120.629 132.883 119.062 131.494 117.59C130.105 116.119 128.61 114.722 126.998 113.378C125.386 112.035 123.891 110.702 122.502 109.369C121.114 108.036 119.968 106.693 119.046 105.339C118.124 103.984 117.668 102.556 117.668 101.052C117.668 99.9858 117.848 99.0474 118.208 98.2584C118.569 97.4693 119.057 96.7976 119.682 96.2644C120.297 95.7313 121.018 95.3261 121.856 95.0488C122.683 94.7716 123.563 94.633 124.496 94.633C125.853 94.633 127.051 94.8569 128.09 95.2941C129.129 95.7419 130.02 96.2964 130.762 96.9682C131.504 97.6399 132.098 98.3757 132.575 99.1647C133.042 99.9644 133.381 100.711 133.593 101.415L134.229 101.319L133.773 93.7053C132.904 93.2148 131.632 92.703 129.956 92.1698C128.281 91.6367 126.192 91.3701 123.701 91.3701C121.803 91.3701 120.053 91.658 118.463 92.2445C116.862 92.8203 115.483 93.6413 114.328 94.697C113.172 95.7526 112.26 97.0215 111.613 98.5036C110.967 99.9858 110.638 101.617 110.638 103.387C110.638 105.552 111.083 107.492 111.974 109.188C112.865 110.883 113.988 112.44 115.346 113.858C116.703 115.276 118.155 116.62 119.703 117.868C121.251 119.126 122.704 120.373 124.061 121.621C125.418 122.879 126.542 124.18 127.433 125.545C128.323 126.91 128.769 128.392 128.769 130.013C128.769 132.028 128.111 133.659 126.807 134.918C125.492 136.176 123.722 136.794 121.495 136.794C120.138 136.794 118.887 136.56 117.742 136.08C116.597 135.611 115.579 134.95 114.688 134.107C113.798 133.265 113.055 132.252 112.451 131.058C111.847 129.863 111.391 128.552 111.094 127.112H110.373L109.917 135.824C110.553 136.282 111.285 136.762 112.112 137.263C112.939 137.765 113.872 138.223 114.911 138.639C115.95 139.055 117.095 139.396 118.346 139.673C119.597 139.95 120.944 140.089 122.396 140.089C124.835 140.089 126.934 139.727 128.705 139.012C130.465 138.298 131.918 137.359 133.042 136.197C134.176 135.035 135.003 133.713 135.554 132.23L135.512 132.241Z" fill="#EDE8E4"/>
<path d="M148.076 126.261C148.076 130.964 149.2 134.429 151.448 136.647C153.696 138.865 156.834 139.974 160.874 139.974C162.231 139.974 163.408 139.889 164.394 139.718C165.391 139.547 166.249 139.355 166.991 139.121C167.734 138.897 168.359 138.652 168.889 138.385C169.42 138.129 169.865 137.905 170.225 137.724L173.162 130.345L172.706 130.121C172.038 130.942 171.328 131.731 170.565 132.478C169.801 133.224 168.995 133.896 168.168 134.472C167.341 135.048 166.483 135.506 165.592 135.847C164.701 136.189 163.811 136.348 162.899 136.348C161.987 136.348 161.171 136.231 160.344 135.986C159.516 135.741 158.774 135.282 158.128 134.61C157.481 133.939 156.951 133.011 156.548 131.838C156.145 130.665 155.933 129.13 155.933 127.232V95.7014C157.926 95.7334 159.845 95.7654 161.722 95.7974C163.588 95.8294 165.242 95.872 166.695 95.936C168.38 96 169.992 96.0426 171.53 96.0746L172.346 91.4042C172.017 91.4682 171.328 91.5322 170.289 91.6068C169.25 91.6815 167.988 91.7561 166.493 91.8308C164.998 91.9054 163.344 91.9694 161.52 92.012C159.697 92.0547 157.841 92.0973 155.943 92.1293C155.975 89.9328 156.028 87.9921 156.102 86.3287C156.177 84.6653 156.272 83.2151 156.378 81.9995C156.484 80.7733 156.611 79.739 156.76 78.886C156.908 78.0329 157.078 77.3078 157.258 76.732V76.5508H146.814V76.732C146.963 77.3078 147.111 78.0329 147.27 78.886C147.419 79.739 147.546 80.784 147.652 82.0209C147.758 83.2578 147.843 84.7079 147.928 86.3713C148.002 88.0348 148.055 89.9541 148.087 92.1187C146.549 92.1187 145.129 92.108 143.835 92.076C142.541 92.044 141.428 92.0014 140.495 91.9374V95.968L148.087 95.6907V126.261H148.076Z" fill="#EDE8E4"/>
<path d="M191.198 138.864C191.017 138.224 190.848 137.424 190.699 136.475C190.551 135.526 190.413 134.354 190.296 132.946C190.18 131.539 190.084 129.864 190.021 127.924C189.957 125.983 189.925 123.712 189.925 121.121V106.001C189.925 104.967 189.957 103.996 190.021 103.111C191.017 102.258 192.035 101.437 193.096 100.659C194.145 99.8803 195.206 99.1872 196.255 98.6008C197.305 98.0036 198.344 97.5345 199.372 97.2039C200.401 96.8734 201.376 96.7028 202.309 96.7028C204.027 96.7028 205.384 97.1079 206.381 97.9183C207.378 98.7287 208.056 99.8057 208.417 101.149L209.18 101.33L211.396 92.5762C211.036 92.4269 210.654 92.267 210.262 92.0964C209.869 91.9258 209.435 91.7765 208.947 91.6379C208.47 91.4992 207.918 91.3926 207.325 91.318C206.72 91.2433 206.01 91.2007 205.204 91.2007C203.879 91.2007 202.564 91.4139 201.249 91.8405C199.934 92.267 198.651 92.8321 197.39 93.5359C196.128 94.2396 194.887 95.05 193.679 95.967C192.47 96.884 191.314 97.8117 190.201 98.7607C190.296 97.1719 190.424 95.871 190.583 94.8687C190.752 93.8558 190.954 93.0027 191.198 92.299V92.1177H180.754V92.299C180.934 92.9387 181.104 93.7385 181.273 94.6875C181.443 95.6365 181.57 96.8094 181.676 98.2169C181.782 99.6244 181.867 101.298 181.952 103.239C182.026 105.18 182.069 107.451 182.069 110.042V121.132C182.069 123.733 182.026 125.994 181.952 127.934C181.878 129.875 181.782 131.549 181.676 132.957C181.57 134.364 181.432 135.537 181.273 136.486C181.104 137.435 180.934 138.224 180.754 138.875V139.056H191.198V138.875V138.864Z" fill="#EDE8E4"/>
<path d="M249.704 137.871C252.757 136.538 255.345 134.757 257.455 132.529C259.564 130.3 261.165 127.731 262.247 124.83C263.328 121.93 263.869 118.902 263.869 115.756C263.869 112.003 263.233 108.601 261.95 105.584C260.667 102.555 258.918 99.9963 256.68 97.885C254.454 95.7738 251.835 94.153 248.834 93.0014C245.834 91.8605 242.632 91.2847 239.228 91.2847C235.825 91.2847 232.527 91.8924 229.505 93.1187C226.494 94.3449 223.875 96.0403 221.659 98.2049C219.443 100.369 217.705 102.929 216.443 105.882C215.181 108.836 214.545 112.035 214.545 115.479C214.545 119.232 215.192 122.623 216.485 125.63C217.779 128.637 219.539 131.196 221.776 133.307C224.003 135.419 226.611 137.039 229.59 138.17C232.57 139.3 235.751 139.865 239.122 139.865C243.098 139.865 246.618 139.204 249.672 137.871H249.704ZM227.809 129.852C226.42 127.763 225.37 125.289 224.671 122.452C223.96 119.616 223.61 116.545 223.61 113.24C223.61 110.307 223.971 107.684 224.692 105.381C225.413 103.078 226.431 101.127 227.745 99.5378C229.06 97.949 230.598 96.7334 232.379 95.8911C234.16 95.0487 236.111 94.6328 238.253 94.6328C241.02 94.6328 243.448 95.2086 245.526 96.3709C247.605 97.5331 249.333 99.1432 250.7 101.201C252.068 103.259 253.107 105.712 253.796 108.537C254.486 111.363 254.836 114.423 254.836 117.729C254.836 120.661 254.475 123.295 253.754 125.609C253.033 127.933 252.026 129.906 250.722 131.516C249.428 133.137 247.88 134.374 246.088 135.227C244.296 136.08 242.324 136.506 240.193 136.506C237.447 136.506 235.051 135.92 232.983 134.747C230.916 133.574 229.198 131.932 227.809 129.842V129.852Z" fill="#EDE8E4"/>
<path d="M279.946 131.729C279.512 131.228 278.992 130.833 278.409 130.535C277.826 130.247 277.179 130.098 276.49 130.098C275.801 130.098 275.207 130.226 274.613 130.492C274.03 130.748 273.511 131.1 273.076 131.548C272.641 131.996 272.291 132.507 272.037 133.105C271.782 133.702 271.655 134.331 271.655 135.003C271.655 136.41 272.1 137.572 272.991 138.489C273.882 139.406 274.984 139.897 276.31 139.961C276.161 142.072 275.631 144.013 274.73 145.783C273.829 147.553 272.62 149.344 271.114 151.146L272.334 152.202C273.447 150.944 274.539 149.611 275.61 148.193C276.681 146.774 277.646 145.324 278.505 143.863C279.363 142.392 280.052 140.963 280.583 139.556C281.113 138.148 281.378 136.847 281.378 135.664C281.378 134.896 281.251 134.182 280.996 133.51C280.742 132.838 280.392 132.252 279.957 131.75L279.946 131.729Z" fill="#EDE8E4"/>
<path d="M348.037 73.0188C346.287 73.0615 344.326 73.1148 342.163 73.1574C339.989 73.2001 337.699 73.2321 335.292 73.2534C332.886 73.2641 330.394 73.2854 327.839 73.296C325.273 73.3067 322.749 73.3174 320.247 73.3174V73.4986C320.427 74.1384 320.597 74.9381 320.767 75.8871C320.936 76.8361 321.074 78.0197 321.191 79.4379C321.307 80.8561 321.403 82.5408 321.466 84.4815C321.53 86.4221 321.562 88.6933 321.562 91.2844V121.119C321.562 123.721 321.53 125.982 321.466 127.922C321.403 129.863 321.318 131.537 321.191 132.944C321.074 134.352 320.926 135.525 320.767 136.474C320.597 137.423 320.427 138.212 320.247 138.862V139.044H331.094V138.862C330.913 138.223 330.744 137.423 330.574 136.474C330.405 135.525 330.277 134.352 330.171 132.944C330.065 131.537 329.97 129.863 329.896 127.922C329.821 125.982 329.779 123.71 329.779 121.119V104.389C331.793 104.389 333.956 104.474 336.247 104.645C338.537 104.816 340.679 105.008 342.661 105.221C344.983 105.466 347.274 105.722 349.532 105.999L350.889 99.3562C349.14 99.6015 347.178 99.8147 345.015 99.996C343.149 100.145 340.912 100.305 338.325 100.455C335.738 100.604 332.886 100.7 329.779 100.732V77.5825C331.104 77.5186 332.366 77.4652 333.575 77.4013C334.624 77.3373 335.695 77.284 336.787 77.2413C337.879 77.1987 338.781 77.1773 339.502 77.1773C341.643 77.1773 343.531 77.2626 345.174 77.4333C346.818 77.6039 348.207 77.7745 349.352 77.9557C350.677 78.169 351.833 78.4142 352.829 78.6915L355.045 72.5923C354.536 72.6883 353.678 72.7736 352.469 72.8482C351.26 72.9228 349.786 72.9868 348.037 73.0295V73.0188Z" fill="#EDE8E4"/>
<path d="M398.599 102.707C396.563 105.063 394.495 107.441 392.407 109.84C392.502 110.448 392.576 111.077 392.65 111.727C392.025 111.749 391.378 111.77 390.71 111.791C389.639 113.028 388.547 114.265 387.466 115.502C388.781 115.502 390.063 115.523 391.336 115.534C394.739 115.566 398.143 115.609 401.546 115.673C401.451 111.791 400.846 108.337 399.712 105.287C399.373 104.381 399.002 103.528 398.599 102.707Z" fill="#EDE8E4"/>
<path d="M395.579 131.59C394.583 132.582 393.459 133.446 392.186 134.182C390.925 134.917 389.515 135.493 387.956 135.898C386.408 136.314 384.754 136.517 383.004 136.517C380.47 136.517 378.201 136.026 376.197 135.045C374.999 134.459 373.918 133.734 372.942 132.849C372.274 132.252 371.659 131.58 371.097 130.844C369.698 129.031 368.595 126.835 367.8 124.265C367.493 123.284 367.238 122.26 367.015 121.183C366.665 119.456 366.443 117.611 366.326 115.649C367.185 115.628 368.097 115.596 369.051 115.575C369.051 115.575 369.051 115.575 369.051 115.564H370.398L379.612 115.468H380.173C380.343 115.468 380.513 115.468 380.682 115.468C380.969 115.468 381.244 115.468 381.531 115.468C381.796 115.17 382.05 114.871 382.315 114.572C383.11 113.666 383.895 112.77 384.69 111.864C384.584 111.864 384.478 111.864 384.372 111.864C383.269 111.864 382.167 111.864 381.064 111.875C381.064 111.875 381.064 111.896 381.053 111.907H370.398C370.398 111.907 370.398 111.896 370.398 111.885C368.966 111.885 367.598 111.853 366.305 111.8C366.422 109.081 366.814 106.661 367.482 104.539C368.139 102.417 369.019 100.615 370.101 99.1538C371.182 97.6823 372.455 96.5627 373.918 95.7843C374.914 95.2512 375.975 94.91 377.099 94.7394C377.629 94.6647 378.169 94.6221 378.731 94.6221C380.661 94.6221 382.421 95.0166 384.022 95.8163C385.093 96.3495 386.069 97.0319 386.949 97.8636C387.383 98.2795 387.797 98.7167 388.179 99.2071C389.355 100.679 390.32 102.459 391.073 104.571C391.073 104.571 391.073 104.571 391.073 104.581C392.77 102.651 394.445 100.721 396.099 98.8126C395.77 98.3968 395.42 98.0022 395.07 97.6184C393.321 95.763 391.285 94.3022 388.974 93.2466C388.709 93.1293 388.454 93.012 388.179 92.9054C385.528 91.8177 382.644 91.2739 379.548 91.2739C379.198 91.2739 378.859 91.2739 378.519 91.2952C375.773 91.4125 373.197 92.0203 370.801 93.108C368.107 94.3342 365.743 96.0296 363.729 98.1942C361.714 100.359 360.124 102.918 358.979 105.871C357.833 108.825 357.261 112.024 357.261 115.468C357.261 119.381 357.886 122.858 359.137 125.896C360.155 128.37 361.481 130.524 363.103 132.348C363.474 132.763 363.856 133.169 364.259 133.542C366.22 135.397 368.479 136.858 371.055 137.914C371.331 138.031 371.617 138.137 371.903 138.244C374.83 139.31 377.957 139.844 381.308 139.844C384.468 139.844 387.182 139.545 389.44 138.948C391.699 138.351 393.639 137.626 395.272 136.773L398.612 128.615L398.071 128.338C397.382 129.501 396.534 130.577 395.537 131.569L395.579 131.59Z" fill="#EDE8E4"/>
<path d="M419.128 106.001C419.128 104.967 419.16 103.996 419.224 103.111C420.221 102.258 421.238 101.437 422.299 100.659C423.348 99.8803 424.409 99.1872 425.458 98.6008C426.508 98.0036 427.547 97.5345 428.575 97.2039C429.604 96.8734 430.579 96.7028 431.512 96.7028C433.23 96.7028 434.587 97.1079 435.584 97.9183C436.581 98.7287 437.259 99.8057 437.62 101.149L438.383 101.33L440.599 92.5762C440.239 92.4269 439.857 92.267 439.465 92.0964C439.072 91.9258 438.638 91.7765 438.15 91.6379C437.673 91.4992 437.121 91.3926 436.528 91.318C435.923 91.2433 435.213 91.2007 434.407 91.2007C433.082 91.2007 431.767 91.4139 430.452 91.8405C429.137 92.267 427.854 92.8321 426.593 93.5359C425.331 94.2396 424.09 95.05 422.882 95.967C421.673 96.884 420.517 97.8117 419.404 98.7607C419.5 97.1719 419.627 95.871 419.786 94.8687C419.955 93.8558 420.157 93.0027 420.401 92.299V92.1177H409.957V92.299C410.137 92.9387 410.307 93.7385 410.477 94.6875C410.646 95.6365 410.773 96.8094 410.879 98.2169C410.985 99.6244 411.07 101.298 411.155 103.239C411.229 105.18 411.272 107.451 411.272 110.042V121.132C411.272 123.733 411.229 125.994 411.155 127.934C411.081 129.875 410.985 131.549 410.879 132.957C410.773 134.364 410.636 135.537 410.477 136.486C410.307 137.435 410.137 138.224 409.957 138.875V139.056H420.401V138.875C420.221 138.235 420.051 137.435 419.902 136.486C419.754 135.537 419.616 134.364 419.5 132.957C419.383 131.549 419.287 129.875 419.224 127.934C419.16 125.994 419.128 123.723 419.128 121.132V106.011V106.001Z" fill="#EDE8E4"/>
<path d="M486.879 132.946C486.762 131.539 486.667 129.864 486.603 127.924C486.54 125.983 486.508 123.712 486.508 121.121V105.542C486.508 103.772 486.275 102.024 485.808 100.296C485.342 98.5688 484.589 97.0333 483.55 95.6898C482.511 94.3462 481.164 93.2586 479.531 92.4376C477.888 91.6165 475.894 91.2007 473.541 91.2007C472.003 91.2007 470.434 91.4566 468.844 91.9578C467.243 92.4589 465.684 93.12 464.147 93.9304C462.609 94.7408 461.125 95.6684 459.693 96.7028C458.262 97.7371 456.926 98.782 455.696 99.8163C455.845 97.9183 455.993 96.3829 456.131 95.2099C456.269 94.037 456.459 93.0667 456.693 92.299V92.1177H446.249V92.299C446.429 92.9387 446.599 93.7385 446.769 94.6875C446.938 95.6365 447.065 96.8094 447.171 98.2169C447.277 99.6244 447.362 101.298 447.447 103.239C447.521 105.18 447.564 107.451 447.564 110.042V121.132C447.564 123.733 447.521 125.994 447.447 127.934C447.373 129.875 447.277 131.549 447.171 132.957C447.065 134.364 446.928 135.537 446.769 136.486C446.599 137.435 446.429 138.224 446.249 138.875V139.056H456.693V138.875C456.512 138.235 456.343 137.435 456.194 136.486C456.046 135.537 455.908 134.364 455.792 132.957C455.675 131.549 455.579 129.875 455.516 127.934C455.452 125.994 455.42 123.723 455.42 121.132V110.042L455.516 104.039C456.629 103.005 457.817 102.024 459.089 101.107C460.361 100.19 461.623 99.3898 462.885 98.6967C464.147 98.0143 465.387 97.4598 466.596 97.044C467.805 96.6281 468.886 96.4255 469.851 96.4255C472.533 96.4255 474.675 97.3745 476.266 99.2619C477.867 101.16 478.662 104.124 478.662 108.155V121.121C478.662 123.723 478.619 125.983 478.545 127.924C478.471 129.864 478.375 131.539 478.269 132.946C478.163 134.354 478.026 135.526 477.866 136.475C477.697 137.424 477.527 138.214 477.347 138.864V139.045H487.791V138.864C487.611 138.224 487.441 137.424 487.292 136.475C487.144 135.526 487.006 134.354 486.889 132.946H486.879Z" fill="#EDE8E4"/>
<path d="M534.718 132.946C534.612 131.538 534.517 129.864 534.443 127.924C534.368 125.983 534.326 123.712 534.326 121.121V106.182C534.326 104.103 533.997 102.151 533.329 100.339C532.661 98.526 531.622 96.9373 530.191 95.5724C528.76 94.2182 526.925 93.1413 524.677 92.3629C522.43 91.5845 519.726 91.1899 516.566 91.1899C515.421 91.1899 514.329 91.2326 513.29 91.3072C512.251 91.3819 511.233 91.5098 510.236 91.7018C509.24 91.883 508.264 92.1176 507.299 92.4162C506.335 92.7041 505.359 93.0773 504.363 93.5358L501.288 99.9975L501.744 100.275C503.186 99.1445 504.543 98.2168 505.794 97.4811C507.045 96.7453 508.233 96.1695 509.367 95.743C510.502 95.3165 511.594 95.0073 512.643 94.826C513.693 94.6447 514.764 94.5488 515.856 94.5488C517.425 94.5488 518.856 94.7833 520.171 95.2632C521.486 95.7323 522.599 96.4574 523.543 97.4171C524.476 98.3768 525.197 99.5923 525.716 101.064C526.225 102.535 526.48 104.273 526.48 106.289V108.624C524.667 108.656 522.684 108.752 520.511 108.922C518.337 109.093 516.142 109.392 513.916 109.839C511.689 110.287 509.537 110.895 507.448 111.673C505.37 112.452 503.514 113.465 501.892 114.723C500.27 115.981 498.966 117.485 497.98 119.265C497.004 121.035 496.506 123.136 496.506 125.546C496.506 130.131 497.937 133.671 500.8 136.156C503.663 138.651 507.713 139.888 512.961 139.888C514.562 139.888 516.026 139.738 517.372 139.45C518.708 139.162 519.938 138.779 521.03 138.309C522.133 137.84 523.108 137.307 523.967 136.731C524.826 136.156 525.568 135.59 526.204 135.036C526.141 135.889 526.077 136.625 526.003 137.232C525.929 137.84 525.812 138.395 525.664 138.885V139.066H535.651V138.885C535.471 138.245 535.301 137.446 535.132 136.497C534.962 135.548 534.835 134.375 534.729 132.967L534.718 132.946ZM526.469 121.121V125.951C526.469 127.369 526.437 128.659 526.374 129.822C526.045 130.525 525.557 131.251 524.932 131.997C524.296 132.743 523.522 133.436 522.599 134.055C521.677 134.684 520.627 135.196 519.44 135.612C518.252 136.028 516.927 136.23 515.485 136.23C512.346 136.23 509.897 135.281 508.116 133.394C506.335 131.496 505.444 128.745 505.444 125.141C505.444 122.326 506.027 120.076 507.183 118.38C508.339 116.685 509.897 115.373 511.837 114.456C513.778 113.539 516.015 112.932 518.549 112.644C521.083 112.356 523.713 112.196 526.459 112.164V121.099L526.469 121.121Z" fill="#EDE8E4"/>
<path d="M587.31 132.946C587.193 131.539 587.098 129.864 587.034 127.924C586.97 125.983 586.939 123.712 586.939 121.121V105.542C586.939 103.772 586.705 102.024 586.239 100.296C585.772 98.5688 585.019 97.0333 583.98 95.6898C582.941 94.3462 581.595 93.2586 579.962 92.4376C578.318 91.6165 576.325 91.2007 573.971 91.2007C572.434 91.2007 570.865 91.4566 569.274 91.9578C567.673 92.4589 566.115 93.12 564.577 93.9304C563.04 94.7408 561.555 95.6684 560.124 96.7028C558.693 97.7371 557.357 98.782 556.127 99.8163C556.275 97.9183 556.424 96.3829 556.562 95.2099C556.699 94.037 556.89 93.0667 557.123 92.299V92.1177H546.68V92.299C546.86 92.9387 547.03 93.7385 547.199 94.6875C547.369 95.6365 547.496 96.8094 547.602 98.2169C547.708 99.6244 547.793 101.298 547.878 103.239C547.952 105.18 547.994 107.451 547.994 110.042V121.132C547.994 123.733 547.952 125.994 547.878 127.934C547.804 129.875 547.708 131.549 547.602 132.957C547.496 134.364 547.358 135.537 547.199 136.486C547.03 137.435 546.86 138.224 546.68 138.875V139.056H557.123V138.875C556.943 138.235 556.774 137.435 556.625 136.486C556.477 135.537 556.339 134.364 556.222 132.957C556.106 131.549 556.01 129.875 555.947 127.934C555.883 125.994 555.851 123.723 555.851 121.132V110.042L555.947 104.039C557.06 103.005 558.247 102.024 559.52 101.107C560.792 100.19 562.054 99.3898 563.316 98.6967C564.577 98.0143 565.818 97.4598 567.027 97.044C568.235 96.6281 569.317 96.4255 570.282 96.4255C572.964 96.4255 575.106 97.3745 576.696 99.2619C578.297 101.16 579.092 104.124 579.092 108.155V121.121C579.092 123.723 579.05 125.983 578.976 127.924C578.902 129.864 578.806 131.539 578.7 132.946C578.594 134.354 578.456 135.526 578.297 136.475C578.128 137.424 577.958 138.214 577.778 138.864V139.045H588.221V138.864C588.041 138.224 587.872 137.424 587.723 136.475C587.575 135.526 587.437 134.354 587.32 132.946H587.31Z" fill="#EDE8E4"/>
<path d="M603.192 133.319C605.259 135.43 607.751 137.051 610.667 138.181C613.593 139.311 616.848 139.877 620.432 139.877C623.507 139.877 626.2 139.482 628.522 138.682C630.844 137.893 632.774 136.998 634.311 136.027C634.216 136.731 634.141 137.317 634.088 137.787C634.025 138.256 633.95 138.618 633.866 138.864V139.045H643.854V138.864C643.673 138.224 643.504 137.424 643.334 136.475C643.164 135.526 643.037 134.353 642.931 132.946C642.825 131.538 642.73 129.864 642.655 127.923C642.581 125.983 642.539 123.712 642.539 121.12V88.4385C642.539 85.8368 642.581 83.5762 642.655 81.6356C642.73 79.6949 642.825 78.0209 642.931 76.6134C643.037 75.2058 643.175 74.0329 643.334 73.0839C643.504 72.1349 643.673 71.3459 643.854 70.6954V70.5142H633.41V70.6954C633.59 71.3352 633.76 72.1349 633.908 73.0839C634.057 74.0329 634.194 75.2058 634.311 76.6134C634.428 78.0209 634.523 79.6949 634.587 81.6356C634.65 83.5762 634.682 85.8474 634.682 88.4385V95.9559C633.834 95.2202 632.89 94.5697 631.83 93.9833C630.77 93.4075 629.656 92.917 628.49 92.5118C627.313 92.1172 626.104 91.808 624.874 91.5948C623.634 91.3815 622.404 91.2749 621.164 91.2749C617.612 91.2749 614.335 91.8827 611.356 93.1089C608.377 94.3351 605.8 96.0305 603.627 98.1951C601.453 100.36 599.767 102.919 598.569 105.872C597.36 108.826 596.756 112.025 596.756 115.469C596.756 119.222 597.318 122.613 598.431 125.62C599.544 128.627 601.135 131.186 603.202 133.297L603.192 133.319ZM606.988 105.382C607.783 103.079 608.896 101.127 610.306 99.5387C611.727 97.9499 613.424 96.7343 615.417 95.8919C617.41 95.0496 619.573 94.6337 621.927 94.6337C624.726 94.6337 627.249 95.4014 629.497 96.9262C631.745 98.451 633.463 100.818 634.671 104.028V121.12C634.671 123.136 634.661 124.991 634.629 126.665C634.597 128.35 634.555 129.843 634.491 131.154C633.982 131.762 633.335 132.38 632.551 133.01C631.766 133.639 630.865 134.204 629.837 134.726C628.808 135.249 627.684 135.675 626.444 136.006C625.203 136.347 623.878 136.507 622.468 136.507C619.753 136.507 617.357 135.921 615.279 134.748C613.201 133.575 611.462 131.933 610.062 129.843C608.663 127.753 607.603 125.279 606.871 122.443C606.139 119.606 605.789 116.535 605.789 113.23C605.789 110.298 606.192 107.674 606.988 105.371V105.382Z" fill="#EDE8E4"/>
<path d="M693.475 128.36C692.786 129.523 691.937 130.6 690.941 131.591C689.944 132.583 688.82 133.447 687.548 134.182C686.286 134.918 684.876 135.494 683.317 135.899C681.769 136.315 680.115 136.518 678.366 136.518C675.832 136.518 673.563 136.027 671.559 135.046C669.555 134.065 667.848 132.668 666.448 130.856C665.049 129.043 663.946 126.846 663.151 124.277C662.355 121.707 661.868 118.838 661.677 115.661C663.67 115.597 665.907 115.554 668.389 115.522C670.87 115.49 673.425 115.48 676.054 115.48C679.734 115.48 683.275 115.49 686.678 115.522C690.082 115.554 693.485 115.597 696.889 115.661C696.793 111.78 696.189 108.325 695.055 105.275C693.92 102.236 692.383 99.6879 690.442 97.6193C688.502 95.5613 686.201 93.9832 683.551 92.8956C680.9 91.808 678.016 91.2642 674.92 91.2642C671.824 91.2642 668.866 91.8719 666.173 93.0982C663.479 94.3244 661.115 96.0198 659.1 98.1844C657.086 100.349 655.496 102.908 654.35 105.862C653.205 108.815 652.633 112.014 652.633 115.458C652.633 119.372 653.258 122.848 654.51 125.887C655.761 128.926 657.468 131.474 659.641 133.543C661.815 135.601 664.359 137.168 667.275 138.245C670.202 139.311 673.329 139.844 676.68 139.844C679.84 139.844 682.554 139.546 684.812 138.949C687.071 138.352 689.011 137.627 690.644 136.774L693.984 128.616L693.443 128.339L693.475 128.36ZM662.875 104.55C663.533 102.428 664.413 100.626 665.494 99.1654C666.575 97.7046 667.848 96.5743 669.311 95.7959C670.774 95.0175 672.375 94.623 674.125 94.623C676.054 94.623 677.814 95.0175 679.415 95.8172C681.016 96.617 682.395 97.7472 683.572 99.208C684.749 100.68 685.714 102.46 686.466 104.571C687.219 106.683 687.728 109.061 688.004 111.726C685.533 111.822 682.787 111.876 679.755 111.886C676.722 111.897 673.701 111.908 670.689 111.908H665.992C664.487 111.908 663.055 111.876 661.698 111.812C661.815 109.093 662.207 106.672 662.875 104.55Z" fill="#EDE8E4"/>
<path d="M731.167 135.079C729.173 135.335 727.01 135.473 724.657 135.473H711.234L740.571 92.9389V92.1178H715.125C714.796 92.1178 714.202 92.1178 713.344 92.0965C712.485 92.0858 711.562 92.0539 710.566 92.0005C709.569 91.9579 708.625 91.9152 707.745 91.8832C706.855 91.8513 706.229 91.8086 705.869 91.7446L702.932 98.3023C704.374 97.8118 706.006 97.3853 707.809 97.0228C709.346 96.6922 711.159 96.383 713.259 96.1058C715.347 95.8285 717.648 95.6899 720.15 95.6899H729.598L700.397 137.904V139.045H729.682C729.979 139.045 730.573 139.045 731.442 139.067C732.312 139.077 733.245 139.109 734.22 139.163C735.196 139.205 736.129 139.259 737.02 139.301C737.91 139.344 738.536 139.387 738.896 139.419L740.932 132.861C739.543 133.383 738.006 133.821 736.32 134.194C734.878 134.535 733.16 134.834 731.167 135.089V135.079Z" fill="#EDE8E4"/>
<path d="M756.731 133.501C756.477 132.829 756.127 132.243 755.692 131.742C755.258 131.241 754.738 130.846 754.155 130.548C753.572 130.26 752.925 130.11 752.236 130.11C751.547 130.11 750.953 130.238 750.359 130.505C749.776 130.761 749.257 131.113 748.822 131.561C748.387 132.008 748.037 132.52 747.783 133.117C747.528 133.714 747.401 134.344 747.401 135.015C747.401 136.423 747.846 137.585 748.737 138.502C749.628 139.419 750.73 139.91 752.056 139.974C751.907 142.085 751.377 144.025 750.476 145.796C749.575 147.566 748.366 149.357 746.86 151.159L748.08 152.215C749.193 150.956 750.285 149.624 751.356 148.205C752.427 146.787 753.392 145.337 754.25 143.876C755.109 142.405 755.798 140.976 756.329 139.568C756.859 138.161 757.124 136.86 757.124 135.676C757.124 134.909 756.997 134.194 756.742 133.522L756.731 133.501Z" fill="#EDE8E4"/>
<path d="M98.7332 175.395C98.7968 175.513 98.8499 175.705 98.9135 175.971C98.9771 176.227 99.0089 176.547 99.0089 176.909C99.0089 178.285 98.7545 179.639 98.2455 180.993C97.7366 182.337 97.2489 183.574 96.8036 184.704L77.4641 230.128L57.446 184.341C56.725 182.635 56.2373 181.207 55.9722 180.055C55.7178 178.914 55.5905 177.858 55.5905 176.92C55.5905 176.675 55.6011 176.398 55.6329 176.099C55.6647 175.79 55.7071 175.566 55.7707 175.417V175.235H43.3867V175.417C43.5352 175.598 43.8214 176.024 44.2455 176.696C44.6696 177.368 45.1467 178.2 45.6874 179.191C46.2282 180.183 46.8114 181.292 47.4263 182.518C48.0413 183.744 48.6351 185.013 49.2076 186.325L73.7531 242.38H77.3686L103.271 184.086C104.236 181.889 105.127 180.034 105.943 178.541C106.76 177.048 107.449 176.003 108.021 175.427V175.246H98.7545V175.427L98.7332 175.395Z" fill="#EDE8E4"/>
<path d="M110.216 194.182C110.396 194.822 110.566 195.622 110.735 196.571C110.905 197.52 111.032 198.693 111.138 200.1C111.244 201.508 111.329 203.182 111.414 205.122C111.488 207.063 111.531 209.334 111.531 211.925V223.015C111.531 225.617 111.488 227.877 111.414 229.818C111.34 231.758 111.244 233.432 111.138 234.84C111.032 236.247 110.895 237.42 110.735 238.369C110.566 239.318 110.396 240.107 110.216 240.758V240.939H120.66V240.758C120.479 240.118 120.31 239.318 120.161 238.369C120.013 237.42 119.875 236.247 119.758 234.84C119.642 233.432 119.546 231.758 119.483 229.818C119.419 227.877 119.387 225.606 119.387 223.015V211.925C119.387 209.324 119.419 207.063 119.483 205.122C119.546 203.182 119.631 201.508 119.758 200.1C119.875 198.693 120.013 197.52 120.161 196.571C120.31 195.622 120.479 194.833 120.66 194.182V194.001H110.216V194.182Z" fill="#EDE8E4"/>
<path d="M113.491 184.673C114.074 184.929 114.721 185.067 115.41 185.067C116.799 185.067 117.955 184.598 118.888 183.649C119.821 182.7 120.287 181.527 120.287 180.12C120.287 179.448 120.16 178.819 119.906 178.222C119.651 177.625 119.301 177.102 118.867 176.665C118.432 176.217 117.912 175.876 117.329 175.609C116.746 175.353 116.099 175.215 115.41 175.215C114.721 175.215 114.074 175.343 113.491 175.609C112.908 175.865 112.399 176.217 111.975 176.665C111.551 177.113 111.211 177.625 110.957 178.222C110.702 178.819 110.575 179.448 110.575 180.12C110.575 180.792 110.702 181.474 110.957 182.071C111.211 182.668 111.551 183.191 111.975 183.628C112.399 184.076 112.897 184.428 113.491 184.684V184.673Z" fill="#EDE8E4"/>
<path d="M165.031 194.182L165.487 197.573C164.618 196.965 163.717 196.39 162.794 195.856C161.872 195.323 160.896 194.843 159.857 194.438C158.818 194.022 157.694 193.703 156.486 193.457C155.277 193.212 153.952 193.095 152.51 193.095C149.138 193.095 146.052 193.713 143.264 194.95C140.475 196.187 138.079 197.893 136.075 200.058C134.071 202.222 132.523 204.792 131.421 207.756C130.318 210.721 129.767 213.93 129.767 217.385C129.767 221.138 130.329 224.529 131.442 227.536C132.555 230.543 134.146 233.102 136.213 235.213C138.281 237.325 140.772 238.945 143.688 240.076C146.614 241.206 149.869 241.771 153.453 241.771C156.072 241.771 158.426 241.483 160.504 240.918C162.582 240.353 164.364 239.67 165.837 238.881V240.395C165.837 242.325 165.816 244.181 165.774 245.983C165.731 247.785 165.562 249.48 165.275 251.069C164.989 252.658 164.554 254.119 163.961 255.441C163.377 256.774 162.529 257.904 161.427 258.853C160.324 259.802 158.935 260.538 157.249 261.071C155.563 261.604 153.496 261.871 151.057 261.871C149.7 261.871 148.237 261.668 146.646 261.252C145.066 260.836 143.54 260.229 142.055 259.418C140.581 258.608 139.214 257.595 137.963 256.39C136.711 255.185 135.725 253.788 135.004 252.199L134.283 252.381L135.683 261.178C136.34 261.54 137.231 261.967 138.355 262.457C139.468 262.948 140.719 263.395 142.108 263.811C143.497 264.227 144.96 264.579 146.487 264.867C148.025 265.155 149.541 265.304 151.057 265.304C155.362 265.304 158.967 264.675 161.861 263.427C164.756 262.169 167.078 260.506 168.848 258.426C170.609 256.347 171.86 253.969 172.602 251.304C173.344 248.627 173.705 245.887 173.705 243.072V211.904C173.705 209.302 173.747 207.042 173.821 205.101C173.895 203.161 173.991 201.486 174.097 200.079C174.203 198.671 174.341 197.499 174.5 196.55C174.669 195.601 174.839 194.811 175.019 194.161V193.98H165.031V194.161V194.182ZM165.805 207.276C165.837 208.663 165.848 210.219 165.848 211.925V234.755C164.639 235.736 163.155 236.589 161.395 237.325C159.635 238.06 157.663 238.423 155.5 238.423C152.785 238.423 150.389 237.836 148.311 236.663C146.233 235.491 144.494 233.848 143.094 231.758C141.695 229.669 140.634 227.195 139.903 224.358C139.171 221.522 138.821 218.451 138.821 215.146C138.821 212.213 139.161 209.59 139.839 207.287C140.518 204.984 141.493 203.022 142.776 201.422C144.059 199.823 145.618 198.586 147.452 197.733C149.286 196.88 151.354 196.454 153.644 196.454C154.726 196.454 155.828 196.613 156.942 196.933C158.055 197.253 159.147 197.712 160.218 198.309C161.289 198.906 162.296 199.642 163.25 200.505C164.204 201.369 165.031 202.382 165.763 203.512C165.763 204.643 165.774 205.901 165.805 207.298V207.276Z" fill="#EDE8E4"/>
<path d="M226.952 234.84C226.836 233.433 226.74 231.758 226.677 229.818C226.613 227.877 226.581 225.606 226.581 223.015V207.436C226.581 205.666 226.348 203.918 225.881 202.19C225.415 200.463 224.662 198.927 223.623 197.584C222.584 196.24 221.237 195.153 219.604 194.332C217.961 193.511 215.968 193.095 213.614 193.095C212.076 193.095 210.507 193.351 208.917 193.852C207.316 194.353 205.757 195.014 204.22 195.824C202.682 196.635 201.198 197.562 199.767 198.597C198.335 199.631 196.999 200.676 195.769 201.71C195.918 199.812 196.066 198.277 196.204 197.104C196.342 195.931 196.533 194.961 196.766 194.193V194.012H186.322V194.193C186.503 194.833 186.672 195.632 186.842 196.581C187.011 197.53 187.139 198.703 187.245 200.111C187.351 201.518 187.436 203.193 187.52 205.133C187.595 207.074 187.637 209.345 187.637 211.936V223.026C187.637 225.627 187.595 227.888 187.52 229.829C187.446 231.769 187.351 233.443 187.245 234.851C187.139 236.258 187.001 237.431 186.842 238.38C186.672 239.329 186.503 240.118 186.322 240.769V240.95H196.766V240.769C196.586 240.129 196.416 239.329 196.268 238.38C196.119 237.431 195.981 236.258 195.865 234.851C195.748 233.443 195.653 231.769 195.589 229.829C195.525 227.888 195.494 225.617 195.494 223.026V211.936L195.589 205.933C196.702 204.899 197.89 203.918 199.162 203.001C200.435 202.084 201.696 201.284 202.958 200.591C204.22 199.908 205.46 199.354 206.669 198.938C207.878 198.522 208.959 198.32 209.924 198.32C212.607 198.32 214.748 199.269 216.339 201.156C217.94 203.054 218.735 206.018 218.735 210.049V223.015C218.735 225.617 218.693 227.877 218.618 229.818C218.544 231.758 218.449 233.433 218.343 234.84C218.237 236.248 218.099 237.421 217.94 238.37C217.77 239.319 217.601 240.108 217.42 240.758V240.939H227.864V240.758C227.684 240.118 227.514 239.319 227.366 238.37C227.217 237.421 227.079 236.248 226.963 234.84H226.952Z" fill="#EDE8E4"/>
<path d="M456.247 179.703C455.738 179.245 455.208 178.818 454.657 178.413C453.332 180.066 451.996 181.751 450.649 183.446C451.296 184.608 451.805 185.93 452.176 187.423C452.685 189.46 452.939 191.71 452.939 194.183C452.939 197.756 452.451 200.784 451.465 203.258C450.49 205.731 449.112 207.693 447.352 209.144C445.591 210.594 443.481 211.543 441.022 211.98C438.562 212.428 435.858 212.374 432.911 211.82V206.233V198.534V178.776C433.419 178.594 434.066 178.424 434.851 178.274C435.508 178.157 436.325 178.04 437.29 177.933C438.254 177.827 439.378 177.773 440.682 177.773C442.729 177.773 444.521 178.168 446.058 178.946C446.577 179.213 447.076 179.522 447.532 179.863C448.507 178.637 449.493 177.411 450.479 176.184C450.267 176.099 450.045 176.025 449.833 175.939C447.373 175.086 444.701 174.66 441.806 174.66C438.7 174.66 436.144 174.809 434.14 175.097C432.136 175.385 430.546 175.534 429.369 175.534C428.616 175.534 427.885 175.534 427.174 175.513C426.464 175.502 425.828 175.459 425.255 175.395C424.587 175.331 423.962 175.278 423.357 175.214V175.395C423.538 176.035 423.707 176.835 423.877 177.784C424.047 178.733 424.184 179.917 424.301 181.335C424.418 182.753 424.513 184.438 424.577 186.378C424.619 187.722 424.64 189.225 424.662 190.878H424.651L424.63 209.304V217.045L424.608 228.795C424.608 229.147 424.587 229.499 424.577 229.83C424.513 231.77 424.428 233.444 424.301 234.852C424.184 236.259 424.036 237.432 423.877 238.381C423.707 239.33 423.538 240.119 423.357 240.77V240.951H434.204V240.77C434.024 240.13 433.854 239.33 433.685 238.381C433.515 237.432 433.388 236.259 433.282 234.852C433.176 233.444 433.08 231.77 433.006 229.83C432.932 227.889 432.889 225.618 432.889 223.027V215.413C436.717 215.989 440.375 215.957 443.874 215.296C447.373 214.635 450.458 213.398 453.141 211.564C455.823 209.73 457.965 207.331 459.555 204.367C461.156 201.402 461.952 197.894 461.952 193.821C461.952 190.793 461.443 188.095 460.435 185.728C459.428 183.361 458.018 181.356 456.205 179.703H456.247Z" fill="#EDE8E4"/>
<path d="M470.253 194.182C470.433 194.822 470.603 195.622 470.772 196.571C470.942 197.52 471.069 198.693 471.175 200.1C471.281 201.508 471.366 203.182 471.451 205.122C471.525 207.063 471.568 209.334 471.568 211.925V223.015C471.568 225.617 471.525 227.877 471.451 229.818C471.377 231.758 471.281 233.432 471.175 234.84C471.069 236.247 470.931 237.42 470.772 238.369C470.603 239.318 470.433 240.107 470.253 240.758V240.939H480.697V240.758C480.516 240.118 480.347 239.318 480.198 238.369C480.05 237.42 479.912 236.247 479.795 234.84C479.679 233.432 479.583 231.758 479.52 229.818C479.456 227.877 479.424 225.606 479.424 223.015V211.925C479.424 209.324 479.456 207.063 479.52 205.122C479.583 203.182 479.668 201.508 479.795 200.1C479.912 198.693 480.05 197.52 480.198 196.571C480.347 195.622 480.516 194.833 480.697 194.182V194.001H470.253V194.182Z" fill="#EDE8E4"/>
<path d="M473.531 184.673C474.114 184.929 474.761 185.067 475.45 185.067C476.839 185.067 477.995 184.598 478.928 183.649C479.861 182.7 480.327 181.527 480.327 180.12C480.327 179.448 480.2 178.819 479.946 178.222C479.691 177.625 479.341 177.102 478.907 176.665C478.472 176.217 477.952 175.876 477.369 175.609C476.786 175.353 476.139 175.215 475.45 175.215C474.761 175.215 474.114 175.343 473.531 175.609C472.948 175.865 472.439 176.217 472.015 176.665C471.591 177.113 471.251 177.625 470.997 178.222C470.742 178.819 470.615 179.448 470.615 180.12C470.615 180.792 470.742 181.474 470.997 182.071C471.251 182.668 471.591 183.191 472.015 183.628C472.439 184.076 472.937 184.428 473.531 184.684V184.673Z" fill="#EDE8E4"/>
<path d="M528.218 234.841C528.112 233.433 528.017 231.759 527.943 229.819C527.868 227.878 527.826 225.607 527.826 223.016V208.077C527.826 205.998 527.497 204.046 526.829 202.234C526.161 200.421 525.122 198.832 523.691 197.467C522.26 196.113 520.425 195.036 518.177 194.258C515.93 193.479 513.226 193.085 510.066 193.085C508.921 193.085 507.829 193.128 506.79 193.202C505.751 193.277 504.733 193.405 503.736 193.597C502.74 193.778 501.764 194.013 500.799 194.311C499.835 194.599 498.859 194.972 497.863 195.431L494.788 201.893L495.244 202.17C496.686 201.04 498.043 200.112 499.294 199.376C500.545 198.64 501.733 198.065 502.867 197.638C504.002 197.212 505.094 196.902 506.143 196.721C507.193 196.54 508.264 196.444 509.356 196.444C510.925 196.444 512.356 196.678 513.671 197.158C514.986 197.627 516.099 198.352 517.043 199.312C517.976 200.272 518.697 201.487 519.216 202.959C519.725 204.43 519.98 206.168 519.98 208.184V210.519C518.167 210.551 516.184 210.647 514.011 210.817C511.837 210.988 509.642 211.287 507.416 211.734C505.189 212.182 503.037 212.79 500.948 213.568C498.87 214.347 497.014 215.36 495.392 216.618C493.77 217.876 492.466 219.38 491.48 221.16C490.504 222.931 490.006 225.031 490.006 227.441C490.006 232.026 491.437 235.566 494.3 238.051C497.163 240.546 501.213 241.783 506.461 241.783C508.062 241.783 509.526 241.633 510.872 241.345C512.208 241.057 513.438 240.674 514.53 240.204C515.633 239.735 516.608 239.202 517.467 238.626C518.326 238.051 519.068 237.485 519.704 236.931C519.641 237.784 519.577 238.52 519.503 239.127C519.429 239.735 519.312 240.29 519.164 240.78V240.962H529.151V240.78C528.971 240.14 528.801 239.341 528.632 238.392C528.462 237.443 528.335 236.27 528.229 234.862L528.218 234.841ZM519.969 223.016V227.846C519.969 229.264 519.938 230.555 519.874 231.717C519.545 232.421 519.057 233.146 518.432 233.892C517.796 234.638 517.022 235.331 516.099 235.95C515.177 236.579 514.127 237.091 512.94 237.507C511.752 237.923 510.427 238.125 508.985 238.125C505.846 238.125 503.397 237.176 501.616 235.289C499.835 233.391 498.944 230.64 498.944 227.036C498.944 224.221 499.527 221.971 500.683 220.275C501.839 218.58 503.397 217.268 505.337 216.351C507.278 215.434 509.515 214.827 512.049 214.539C514.583 214.251 517.213 214.091 519.959 214.059V222.994L519.969 223.016Z" fill="#EDE8E4"/>
<path d="M580.809 234.84C580.692 233.433 580.597 231.758 580.533 229.818C580.469 227.877 580.438 225.606 580.438 223.015V207.436C580.438 205.666 580.204 203.918 579.738 202.19C579.271 200.463 578.518 198.927 577.479 197.584C576.44 196.24 575.094 195.153 573.461 194.332C571.817 193.511 569.824 193.095 567.47 193.095C565.933 193.095 564.364 193.351 562.773 193.852C561.172 194.353 559.614 195.014 558.076 195.824C556.539 196.635 555.054 197.562 553.623 198.597C552.192 199.631 550.856 200.676 549.626 201.71C549.774 199.812 549.923 198.277 550.061 197.104C550.198 195.931 550.389 194.961 550.623 194.193V194.012H540.179V194.193C540.359 194.833 540.529 195.632 540.698 196.581C540.868 197.53 540.995 198.703 541.101 200.111C541.207 201.518 541.292 203.193 541.377 205.133C541.451 207.074 541.493 209.345 541.493 211.936V223.026C541.493 225.627 541.451 227.888 541.377 229.829C541.303 231.769 541.207 233.443 541.101 234.851C540.995 236.258 540.857 237.431 540.698 238.38C540.529 239.329 540.359 240.118 540.179 240.769V240.95H550.623V240.769C550.442 240.129 550.273 239.329 550.124 238.38C549.976 237.431 549.838 236.258 549.721 234.851C549.605 233.443 549.509 231.769 549.446 229.829C549.382 227.888 549.35 225.617 549.35 223.026V211.936L549.446 205.933C550.559 204.899 551.746 203.918 553.019 203.001C554.291 202.084 555.553 201.284 556.815 200.591C558.076 199.908 559.317 199.354 560.526 198.938C561.734 198.522 562.816 198.32 563.781 198.32C566.463 198.32 568.605 199.269 570.195 201.156C571.796 203.054 572.592 206.018 572.592 210.049V223.015C572.592 225.617 572.549 227.877 572.475 229.818C572.401 231.758 572.305 233.433 572.199 234.84C572.093 236.248 571.955 237.421 571.796 238.37C571.627 239.319 571.457 240.108 571.277 240.758V240.939H581.721V240.758C581.54 240.118 581.371 239.319 581.222 238.37C581.074 237.421 580.936 236.248 580.819 234.84H580.809Z" fill="#EDE8E4"/>
<path d="M632.382 199.782C630.155 197.67 627.536 196.049 624.535 194.898C621.535 193.757 618.333 193.181 614.929 193.181C611.526 193.181 608.228 193.789 605.207 195.015C602.195 196.241 599.577 197.937 597.361 200.101C595.145 202.266 593.406 204.825 592.144 207.779C590.882 210.732 590.246 213.931 590.246 217.375C590.246 221.129 590.893 224.52 592.186 227.526C593.48 230.533 595.24 233.093 597.477 235.204C599.704 237.315 602.312 238.936 605.291 240.066C608.271 241.196 611.452 241.761 614.823 241.761C618.799 241.761 622.32 241.1 625.373 239.767C628.427 238.435 631.014 236.654 633.124 234.425C635.234 232.197 636.835 229.627 637.916 226.727C638.998 223.826 639.538 220.798 639.538 217.653C639.538 213.899 638.902 210.498 637.619 207.48C636.336 204.452 634.587 201.893 632.35 199.782H632.382ZM629.445 227.505C628.724 229.83 627.716 231.802 626.412 233.412C625.119 235.033 623.571 236.27 621.779 237.123C619.987 237.976 618.015 238.403 615.884 238.403C613.137 238.403 610.741 237.816 608.674 236.643C606.606 235.47 604.889 233.828 603.5 231.738C602.111 229.648 601.061 227.175 600.361 224.338C599.651 221.502 599.301 218.431 599.301 215.125C599.301 212.193 599.661 209.57 600.382 207.267C601.103 204.964 602.121 203.012 603.436 201.424C604.751 199.835 606.288 198.619 608.069 197.777C609.851 196.935 611.802 196.519 613.943 196.519C616.711 196.519 619.139 197.094 621.217 198.257C623.295 199.419 625.023 201.029 626.391 203.087C627.759 205.145 628.798 207.597 629.487 210.423C630.176 213.249 630.526 216.309 630.526 219.615C630.526 222.547 630.166 225.181 629.445 227.494V227.505Z" fill="#EDE8E4"/>
<path d="M679.298 194.182C679.362 194.278 679.415 194.449 679.478 194.705C679.542 194.961 679.574 195.291 679.574 195.686C679.574 197.061 679.319 198.415 678.811 199.77C678.302 201.113 677.814 202.35 677.369 203.48L666.427 229.189L655.622 203.107C654.933 201.401 654.445 199.972 654.18 198.821C653.905 197.68 653.777 196.624 653.777 195.686C653.777 195.441 653.788 195.163 653.82 194.865C653.852 194.555 653.894 194.332 653.958 194.182V194.001H642.114V194.182C642.263 194.364 642.549 194.79 642.973 195.441C643.397 196.102 643.885 196.912 644.447 197.893C645.009 198.874 645.592 199.983 646.207 201.22C646.822 202.457 647.405 203.747 647.946 205.09L663.405 241.568H666.077L682.755 202.841C683.688 200.612 684.568 198.757 685.395 197.275C686.222 195.792 686.911 194.758 687.452 194.182V194.001H679.319V194.182H679.298Z" fill="#EDE8E4"/>
<path d="M694.482 176.654C694.057 177.102 693.718 177.614 693.464 178.211C693.209 178.808 693.082 179.437 693.082 180.109C693.082 180.781 693.209 181.463 693.464 182.06C693.718 182.658 694.057 183.18 694.482 183.617C694.906 184.065 695.404 184.417 695.998 184.673C696.581 184.929 697.228 185.067 697.917 185.067C699.306 185.067 700.462 184.598 701.395 183.649C702.328 182.7 702.794 181.527 702.794 180.12C702.794 179.448 702.667 178.819 702.412 178.222C702.158 177.625 701.808 177.102 701.373 176.665C700.939 176.217 700.419 175.876 699.836 175.609C699.253 175.353 698.606 175.215 697.917 175.215C697.228 175.215 696.581 175.343 695.998 175.609C695.415 175.865 694.906 176.217 694.482 176.665V176.654Z" fill="#EDE8E4"/>
<path d="M692.721 194.182C692.901 194.822 693.071 195.622 693.24 196.571C693.41 197.52 693.537 198.693 693.643 200.1C693.749 201.508 693.834 203.182 693.919 205.122C693.993 207.063 694.035 209.334 694.035 211.925V223.015C694.035 225.617 693.993 227.877 693.919 229.818C693.845 231.758 693.749 233.432 693.643 234.84C693.537 236.247 693.399 237.42 693.24 238.369C693.071 239.318 692.901 240.107 692.721 240.758V240.939H703.165V240.758C702.984 240.118 702.815 239.318 702.666 238.369C702.518 237.42 702.38 236.247 702.263 234.84C702.147 233.432 702.051 231.758 701.988 229.818C701.924 227.877 701.892 225.606 701.892 223.015V211.925C701.892 209.324 701.924 207.063 701.988 205.122C702.051 203.182 702.136 201.508 702.263 200.1C702.38 198.693 702.518 197.52 702.666 196.571C702.815 195.622 702.984 194.833 703.165 194.182V194.001H692.721V194.182Z" fill="#EDE8E4"/>
<path d="M275.257 238.327C275.088 237.378 274.96 236.205 274.854 234.798C274.748 233.39 274.664 231.716 274.579 229.775C274.505 227.835 274.462 225.563 274.462 222.972V208.034C274.462 205.954 274.134 204.003 273.466 202.19C272.798 200.378 271.758 198.778 270.327 197.424C268.896 196.07 267.061 194.993 264.814 194.214C262.566 193.436 259.862 193.042 256.702 193.042C255.557 193.042 254.465 193.084 253.426 193.159C252.387 193.233 251.369 193.361 250.373 193.543C249.376 193.724 248.4 193.959 247.436 194.257C246.471 194.556 245.495 194.918 244.499 195.377V195.398C244.499 195.398 244.456 195.409 244.446 195.419L241.371 201.881L241.827 202.158C243.269 201.028 244.626 200.1 245.877 199.365C247.128 198.629 248.316 198.053 249.45 197.627C250.585 197.2 251.677 196.891 252.726 196.71C253.776 196.528 254.847 196.432 255.939 196.432C257.508 196.432 258.94 196.667 260.254 197.147C261.569 197.616 262.682 198.341 263.626 199.301C264.559 200.26 265.28 201.476 265.8 202.947C266.309 204.419 266.563 206.157 266.563 208.172V210.465C264.771 210.497 262.799 210.593 260.657 210.763C258.484 210.934 256.289 211.232 254.062 211.68C251.836 212.128 249.673 212.736 247.595 213.514C245.517 214.293 243.661 215.306 242.039 216.564C242.018 216.575 242.007 216.596 241.986 216.607C240.364 217.865 239.059 219.368 238.073 221.149C237.098 222.919 236.6 225.02 236.6 227.429C236.6 232.015 238.031 235.555 240.894 238.039C243.756 240.534 247.807 241.771 253.055 241.771C254.656 241.771 256.119 241.622 257.466 241.334C258.802 241.046 260.032 240.662 261.124 240.193C262.227 239.724 263.202 239.191 264.061 238.615C264.708 238.178 265.301 237.741 265.821 237.314C265.99 237.186 266.15 237.047 266.298 236.919C266.234 237.772 266.171 238.508 266.097 239.116C266.022 239.724 265.906 240.278 265.757 240.769V240.95H274.897C274.897 240.95 274.918 240.918 274.929 240.907H275.798V240.726C275.734 240.513 275.681 240.268 275.618 240.022C275.501 239.532 275.385 238.977 275.279 238.348L275.257 238.327ZM262.736 235.917C261.813 236.546 260.763 237.058 259.576 237.474C258.388 237.89 257.063 238.092 255.621 238.092C252.483 238.092 250.033 237.143 248.252 235.256C246.471 233.358 245.591 230.618 245.591 227.003C245.591 224.188 246.174 221.938 247.33 220.243C247.966 219.304 248.729 218.494 249.609 217.79C250.309 217.246 251.083 216.767 251.931 216.372C253.872 215.455 256.109 214.847 258.643 214.559C261.177 214.271 263.806 214.111 266.552 214.079V227.856C266.552 229.274 266.521 230.564 266.457 231.727C266.128 232.43 265.641 233.155 265.015 233.902C264.559 234.446 264.018 234.957 263.403 235.437C263.191 235.597 262.969 235.757 262.746 235.917H262.736Z" fill="#EDE8E4"/>
<path d="M327.953 193.959H317.509V194.14C317.668 194.716 317.827 195.409 317.976 196.219C317.997 196.315 318.007 196.422 318.029 196.518C318.198 197.467 318.325 198.64 318.432 200.047C318.538 201.455 318.622 203.129 318.707 205.07C318.781 207.01 318.824 209.281 318.824 211.872V226.15C318.824 227.142 318.792 228.08 318.739 228.965C317.658 229.999 316.47 230.98 315.187 231.897C313.904 232.814 312.621 233.614 311.349 234.307C310.066 234.99 308.825 235.544 307.617 235.96C306.408 236.376 305.327 236.578 304.362 236.578C302.379 236.578 300.693 236.056 299.304 235.022C298.848 234.67 298.413 234.254 298.021 233.785C296.441 231.887 295.646 228.922 295.646 224.892V224.529C295.646 224.529 295.604 224.583 295.583 224.615V215.071C295.583 215.071 295.625 215.018 295.646 214.997V211.915C295.646 209.313 295.678 207.053 295.742 205.112C295.805 203.172 295.89 201.497 296.017 200.09C296.134 198.682 296.272 197.51 296.42 196.561C296.569 195.612 296.738 194.822 296.919 194.172V193.991H296.855V193.948H286.411V194.129C286.591 194.769 286.761 195.569 286.909 196.507C287.058 197.456 287.196 198.629 287.312 200.037C287.429 201.444 287.524 203.118 287.588 205.059C287.652 207 287.683 209.271 287.683 211.862V227.44C287.683 229.242 287.917 231.002 288.383 232.708C288.489 233.081 288.606 233.454 288.733 233.817C289.2 235.086 289.825 236.248 290.642 237.293C291.299 238.135 292.073 238.882 292.964 239.521C293.504 239.916 294.088 240.268 294.724 240.588C296.367 241.409 298.36 241.825 300.714 241.825C302.252 241.825 303.81 241.569 305.39 241.068C306.97 240.566 308.539 239.895 310.087 239.074C311.635 238.253 313.13 237.314 314.562 236.28C315.972 235.256 317.276 234.222 318.495 233.177C318.4 235.054 318.262 236.578 318.071 237.751C317.87 238.946 317.689 239.927 317.509 240.684V240.865H317.573V240.908H328.016V240.726C327.836 240.087 327.667 239.287 327.518 238.338C327.37 237.389 327.232 236.216 327.115 234.808C326.999 233.401 326.903 231.727 326.84 229.786C326.776 227.846 326.744 225.574 326.744 222.983V211.894C326.744 209.292 326.776 207.031 326.84 205.091C326.903 203.15 326.988 201.476 327.115 200.069C327.232 198.661 327.37 197.488 327.518 196.539C327.667 195.59 327.836 194.801 328.016 194.151V193.969H327.953V193.927V193.959Z" fill="#EDE8E4"/>
<path d="M516.29 83.5325C517.191 83.1273 518.092 82.7327 518.993 82.3382C519.884 81.9437 520.775 81.5811 521.644 81.2399C522.513 80.8987 523.351 80.5788 524.146 80.2803C525.981 79.5978 527.794 78.9474 529.586 78.3289L526.256 72.5923C524.857 73.8932 523.404 75.1727 521.909 76.4523C520.605 77.5505 519.174 78.7341 517.615 79.9817C516.056 81.2293 514.487 82.3809 512.918 83.4365L513.713 84.8013C514.53 84.3642 515.399 83.9376 516.3 83.5325H516.29Z" fill="#EDE8E4"/>
<path d="M375.329 111.908C377.238 111.908 379.157 111.908 381.086 111.908C383.048 107.109 385.009 102.428 386.981 97.8861C386.101 97.0544 385.126 96.3719 384.055 95.8388C382.454 95.0497 380.694 94.6445 378.764 94.6445C378.202 94.6445 377.662 94.6872 377.132 94.7618C374.863 100.328 372.615 106.054 370.42 111.918C370.494 111.918 370.558 111.918 370.621 111.918H375.318L375.329 111.908Z" fill="#B99D53"/>
<path d="M371.108 130.866C371.67 131.602 372.296 132.263 372.953 132.871C373.134 132.391 373.314 131.911 373.494 131.421L373.812 131.058C378.435 125.791 382.994 120.608 387.458 115.511C388.55 114.264 389.631 113.027 390.702 111.801C391.275 111.15 391.837 110.5 392.399 109.849C394.488 107.45 396.555 105.072 398.591 102.716C432.085 63.9882 457.733 31.5729 459.218 12.9661C459.514 8.85023 458.634 5.63003 456.588 3.41214C453.98 0.597124 450.057 0 447.215 0C440.302 0 432.753 4.00926 424.78 11.9105C417.485 19.14 409.809 29.6429 401.973 43.1102C394.127 56.5988 386.164 73.0197 378.552 91.3173C378.891 91.3066 379.23 91.296 379.58 91.296C382.687 91.296 385.56 91.8398 388.211 92.9274C388.476 93.034 388.741 93.1513 389.006 93.2686C397.7 73.6488 406.479 56.6415 414.887 43.1635C421.747 32.1594 428.311 23.6397 434.375 17.8284C440.822 11.6546 446.728 8.51968 451.933 8.51968C453.344 8.51968 454.139 8.70095 454.457 9.08481C454.923 9.64995 454.733 11.1961 454.457 12.7635C452.294 24.2262 444.702 38.3332 430.569 57.164C421.048 69.8528 409.109 83.9279 396.142 98.8347C394.477 100.743 392.802 102.663 391.116 104.603C389.006 107.013 386.875 109.455 384.722 111.897C383.938 112.792 383.143 113.699 382.347 114.605C382.082 114.904 381.828 115.202 381.563 115.501C380.396 116.834 379.22 118.177 378.032 119.521C378.562 118.177 379.092 116.834 379.633 115.501L370.419 115.586C369.953 115.586 369.507 115.607 369.062 115.618C368.383 117.473 367.705 119.339 367.026 121.227C367.238 122.293 367.503 123.327 367.811 124.308C368.606 126.878 369.709 129.064 371.108 130.887V130.866Z" fill="#B99D53"/>
<path d="M457.459 167.642L456.919 168.293C454.756 170.916 452.625 173.549 450.493 176.183C449.507 177.409 448.521 178.636 447.546 179.862C442.584 186.089 437.707 192.327 432.914 198.543V206.242C438.852 198.511 444.821 190.802 450.642 183.445C451.988 181.749 453.324 180.064 454.65 178.412C456.548 176.044 458.424 173.731 460.269 171.47L460.704 170.937L457.449 167.642H457.459Z" fill="#B99D53"/>
<path d="M421.153 213.865C390.967 253.308 364.895 287.376 347.782 287.376C344.495 287.376 342.184 285.819 340.721 282.62C339.395 279.73 338.749 275.508 338.749 269.739V266.732C355.056 249.565 371.798 230.116 387.203 210.443L387.521 210.048L385.062 206.849L384.903 207.094C384.86 207.148 384.818 207.201 384.775 207.265C370.334 225.829 354.632 244.255 339.268 260.676C341.41 233.155 353.677 185.929 371.098 137.945C368.532 136.89 366.263 135.44 364.301 133.574C363.898 133.19 363.517 132.795 363.146 132.379C362.393 134.608 361.64 136.847 360.908 139.108L355.936 144.876L353.624 147.521C333.723 170.286 313.588 193.318 295.659 215.028V224.56C302.667 215.284 310.164 205.836 317.988 196.25C317.84 195.44 317.681 194.736 317.522 194.171V193.99H319.844C331.825 179.382 344.57 164.464 357.6 149.387C350.91 171.139 345.301 192.678 341.336 211.893C336.893 233.389 334.539 251.516 334.338 265.783C316.313 284.443 300.144 299.212 286.286 309.693C270.636 321.529 258.369 327.522 249.823 327.522C246.154 327.522 244.055 324.845 244.055 320.196C244.055 319.045 244.299 317.605 244.585 315.931C244.649 315.579 244.702 315.217 244.765 314.843C251.106 290.798 267.254 263.341 288.756 233.89C288.629 233.528 288.502 233.165 288.407 232.781C287.94 231.075 287.707 229.316 287.707 227.514V224.806C283.508 229.988 279.468 235.085 275.62 240.054C275.683 240.309 275.736 240.544 275.8 240.757V240.939H275.747V240.981H274.899C252.824 269.579 237.11 294.232 234.576 310.482C234.205 312.039 234.205 313.905 234.205 315.419C234.205 320.026 235.658 324.184 238.298 327.148C241.129 330.326 245.115 332 249.844 332C272.269 332 311.881 294.808 334.38 271.648C334.518 279.304 335.525 285.371 337.37 289.679C339.777 295.298 343.658 298.145 348.906 298.145C348.949 298.145 349.001 298.145 349.044 298.145C355.268 298.145 365.192 290.127 380.248 272.949C393.48 257.85 408.632 238.049 424.684 217.086V209.344C423.518 210.869 422.352 212.394 421.196 213.908L421.153 213.865Z" fill="#B99D53"/>
</svg>
