<svg width="16" height="13" viewBox="0 0 16 13" fill="none" xmlns="http://www.w3.org/2000/svg">
<path id="Vector" d="M14.2812 0.422852H1.71875C1.26306 0.423346 0.826179 0.604088 0.503958 0.925418C0.181738 1.24675 0.000496303 1.68243 0 2.13686V10.8627C0.000496303 11.3171 0.181738 11.7528 0.503958 12.0741C0.826179 12.3955 1.26306 12.5762 1.71875 12.5767H14.2812C14.7369 12.5762 15.1738 12.3955 15.496 12.0741C15.8183 11.7528 15.9995 11.3171 16 10.8627V2.13686C15.9995 1.68243 15.8183 1.24675 15.496 0.925418C15.1738 0.604088 14.7369 0.423346 14.2812 0.422852ZM15.0625 2.13686V10.8627C15.0625 10.9006 15.0597 10.9384 15.0541 10.9758L10.5472 6.49977L15.0541 2.02373C15.0597 2.06118 15.0625 2.09899 15.0625 2.13686ZM14.2812 1.35776C14.3172 1.35788 14.3531 1.36038 14.3888 1.36524L8 7.70986L1.61125 1.36524C1.64688 1.36038 1.68279 1.35788 1.71875 1.35776H14.2812ZM0.945938 10.9758C0.940286 10.9384 0.937465 10.9006 0.9375 10.8627V2.13686C0.937465 2.09899 0.940286 2.06118 0.945938 2.02373L5.45281 6.49977L0.945938 10.9758ZM1.71875 11.6418C1.68279 11.6417 1.64688 11.6392 1.61125 11.6343L6.11719 7.15951L7.66937 8.70087C7.75721 8.78803 7.87609 8.83696 8 8.83696C8.12391 8.83696 8.24279 8.78803 8.33062 8.70087L9.88281 7.15951L14.3888 11.6343C14.3531 11.6392 14.3172 11.6417 14.2812 11.6418H1.71875Z" fill="#EDE8E4"/>
</svg>
