<svg width="16" height="21" viewBox="0 0 16 21" fill="none" xmlns="http://www.w3.org/2000/svg">
<g id="Group">
<path id="Vector" d="M8 0C3.58877 0 0 3.58877 0 7.99996C0 9.81614 0.595749 11.5294 1.724 12.956L8 20.8466L14.2772 12.9545C15.4043 11.5294 16 9.8161 16 7.99996C16 3.58877 12.4112 0 8 0ZM13.2418 12.1334L8 18.7238L2.7593 12.1348C1.81865 10.9454 1.3214 9.5156 1.3214 7.99996C1.32144 4.31741 4.31741 1.32144 8 1.32144C11.6826 1.32144 14.6786 4.31741 14.6786 7.99996C14.6786 9.5156 14.1813 10.9454 13.2418 12.1334Z" fill="#EDE8E4"/>
<path id="Vector_2" d="M7.99989 4.59814C6.17828 4.59814 4.69629 6.08014 4.69629 7.90175C4.69629 9.72335 6.17828 11.2053 7.99989 11.2053C9.8215 11.2053 11.3035 9.72335 11.3035 7.90175C11.3035 6.08014 9.8215 4.59814 7.99989 4.59814ZM7.99989 9.88391C6.90693 9.88391 6.01773 8.99471 6.01773 7.90175C6.01773 6.80878 6.90693 5.91958 7.99989 5.91958C9.09285 5.91958 9.98205 6.80878 9.98205 7.90175C9.98205 8.99471 9.09285 9.88391 7.99989 9.88391Z" fill="#EDE8E4"/>
</g>
</svg>
