<svg width="16" height="17" viewBox="0 0 16 17" fill="none" xmlns="http://www.w3.org/2000/svg">
<g id="Group 39550">
<path id="Vector" d="M13.6357 2.81791C12.1312 1.31903 10.1297 0.493043 7.99963 0.492188C5.8743 0.492188 3.86969 1.31744 2.35529 2.81595C0.838208 4.31703 0.001955 6.31187 0 8.42572V8.42816V8.42963C0.000244376 9.70906 0.336383 10.9997 0.974447 12.1779L0.0218716 16.5076L4.40145 15.5114C5.51067 16.0704 6.74831 16.3651 7.99658 16.3656H7.99976C10.1247 16.3656 12.1293 15.5402 13.644 14.0416C15.1624 12.5393 15.999 10.547 16 8.43183C16.0006 6.33154 15.1611 4.3378 13.6357 2.81791ZM7.99963 15.1156H7.99682C6.87599 15.1151 5.76543 14.8337 4.78536 14.3016L4.57825 14.1892L1.66603 14.8516L2.2986 11.9767L2.17665 11.7665C1.57036 10.7209 1.24998 9.56671 1.24998 8.42828C1.2523 4.74347 4.27987 1.74217 7.99939 1.74217C9.79628 1.7429 11.4847 2.43949 12.7535 3.7034C14.0415 4.98687 14.7505 6.66597 14.7499 8.43146C14.7484 12.1171 11.7203 15.1156 7.99963 15.1156Z" fill="#EDE8E4"/>
<path id="Vector_2" d="M5.82283 4.92969H5.47215C5.35009 4.92969 5.1519 4.97539 4.98426 5.15781C4.81649 5.34036 4.34375 5.78158 4.34375 6.67893C4.34375 7.57627 4.99953 8.44332 5.09093 8.56514C5.18245 8.68684 6.35679 10.5871 8.21674 11.3182C9.76253 11.9257 10.0772 11.8048 10.4126 11.7744C10.7481 11.7441 11.4953 11.3333 11.6478 10.9075C11.8003 10.4817 11.8003 10.1166 11.7546 10.0403C11.7087 9.96431 11.5867 9.91874 11.4038 9.82758C11.2207 9.73631 10.3239 9.28764 10.1561 9.22666C9.98834 9.16594 9.86639 9.13551 9.74433 9.31818C9.62226 9.50049 9.26291 9.92228 9.15612 10.044C9.04945 10.1658 8.94265 10.1811 8.75962 10.0898C8.57658 9.99828 7.99325 9.80229 7.29422 9.18109C6.75012 8.69759 6.37256 8.08103 6.26576 7.89848C6.15909 7.71606 6.2544 7.61733 6.34616 7.5263C6.4284 7.44468 6.53946 7.333 6.63098 7.22657C6.72238 7.12003 6.74841 7.04402 6.8095 6.92233C6.87047 6.80063 6.83992 6.69408 6.79423 6.60293C6.74841 6.51165 6.39724 5.60978 6.23448 5.24909H6.23461C6.09751 4.94533 5.95321 4.93506 5.82283 4.92969Z" fill="#EDE8E4"/>
</g>
</svg>
