<svg width="976" height="309" viewBox="0 0 976 309" fill="none" xmlns="http://www.w3.org/2000/svg">
<path d="M236.168 77.279C233.395 75.1502 229.928 72.8729 226.858 71.1402C223.293 68.962 219.578 67.0807 215.765 65.447C204.772 60.8925 192.688 58.5657 179.615 58.5657C166.541 58.5657 154.26 60.843 143.414 65.447C131.975 70.3481 121.823 77.279 113.058 86.3881C104.045 95.6458 97.3098 106.141 92.8529 117.924C88.0988 129.557 85.7218 141.983 85.6722 155.202V155.449C85.6722 169.063 88.0988 181.489 92.8529 192.628C96.9632 204.163 103.649 214.757 112.959 224.263C114.84 226.144 116.772 228.025 118.753 229.758C126.082 236.293 134.005 241.392 142.424 245.105C142.771 245.253 143.117 245.402 143.414 245.55C154.161 250.154 166.244 252.58 179.615 252.58C192.985 252.58 204.871 250.204 215.765 245.55C225.373 241.54 234.683 235.154 243.695 226.441C243.795 226.391 243.894 226.292 243.993 226.193C244.735 225.649 245.429 224.906 246.122 224.213C254.838 215.352 261.672 204.807 266.673 192.678C268.951 187.183 270.685 181.489 271.873 175.499C272.814 170.846 273.904 166.043 274.151 161.043C274.151 158.915 274.003 157.627 274.003 155.697V155.449C274.003 153.617 274.102 151.786 274.25 150.053C275.043 139.013 278.707 129.359 283.61 123.666C289.651 116.636 297.723 112.28 308.668 112.28C314.363 112.28 319.513 113.072 324.118 115.349L324.713 115.646C327.189 116.933 329.071 118.072 331.151 120.003C331.547 120.349 333.577 122.132 334.518 123.221C336.202 125.3 336.746 126.043 337.539 127.33L337.786 126.191C338.975 120.201 340.758 115.003 342.986 109.507C348.335 96.1903 354.723 87.3782 363.389 78.5166L365.023 76.9324C362.002 74.7047 361.507 74.2591 358.387 72.3284C354.128 69.6055 349.771 67.3283 345.017 65.348C334.023 60.7935 321.89 58.5657 308.767 58.5657C305.597 58.5657 302.428 58.7142 299.407 58.9617C289.8 59.8033 280.936 62.0311 272.616 65.546C262.018 70.0511 252.609 76.3879 244.339 84.5564C243.646 85.1505 243.052 85.794 242.408 86.4871C233.395 95.7448 226.66 106.438 222.203 118.27C217.4 129.904 215.171 141.983 215.122 155.202V155.449C215.122 168.618 211.754 179.163 205.663 187.034C198.928 194.906 190.311 198.816 179.615 198.816C175.851 198.816 172.335 198.371 169.067 197.331C163.421 195.698 158.518 192.529 154.408 187.925C154.061 187.678 153.863 187.331 153.566 187.034C147.426 179.361 144.553 169.063 144.553 155.697V155.4C144.553 141.785 148.664 130.152 154.161 123.617C160.153 116.488 168.72 112.23 179.615 112.23C184.963 112.23 190.856 113.27 195.561 115.795C197.343 116.735 198.185 117.181 200.117 118.666C202.345 120.349 202.989 120.894 205.316 123.518C206.307 124.656 207.248 125.993 208.089 127.33C209.228 121.636 210.813 116.191 212.943 110.844C217.102 99.7053 223.342 89.7545 231.513 80.9919C232.553 79.8533 233.791 78.8137 235.079 77.9226L236.218 77.2295L236.168 77.279Z" fill="#47B5FF"/>
<path d="M381.464 232.679C384.238 234.808 387.704 237.085 390.774 238.818C394.34 240.996 398.054 242.877 401.867 244.511C412.861 249.065 424.944 251.392 438.018 251.392C451.092 251.392 463.373 249.115 474.218 244.511C485.658 239.61 495.81 232.679 504.575 223.57C513.588 214.312 520.323 203.817 524.78 192.034C529.534 180.4 531.911 167.974 531.96 154.756V154.509C531.96 140.894 529.534 128.468 524.78 117.33C520.669 105.795 513.984 95.2004 504.674 85.6952C502.792 83.8139 500.861 81.9327 498.88 80.2C491.551 73.6652 483.627 68.5661 475.209 64.8531C474.862 64.7046 474.515 64.5561 474.218 64.4076C463.472 59.8035 451.389 57.3777 438.018 57.3777C424.647 57.3777 412.762 59.754 401.867 64.4076C392.26 68.4175 382.95 74.8038 373.937 83.5169C373.838 83.5664 373.739 83.6654 373.64 83.7644C372.897 84.309 372.204 85.0516 371.511 85.7447C362.795 94.6063 355.961 105.151 350.959 117.28C348.681 122.775 346.948 128.468 345.759 134.459C344.818 139.112 343.729 143.914 343.481 148.914C343.481 151.043 343.63 152.33 343.63 154.261V154.509C343.63 156.34 343.531 158.172 343.382 159.905C342.59 170.945 338.925 180.598 334.023 186.292C327.981 193.321 319.909 197.678 308.965 197.678C303.27 197.678 298.12 196.886 293.514 194.609L292.92 194.312C290.444 193.024 288.562 191.886 286.482 189.955C286.086 189.609 284.056 187.826 283.115 186.737C281.431 184.658 280.886 183.915 280.094 182.628L279.846 183.767C278.658 189.757 276.875 194.955 274.646 200.45C269.298 213.767 262.91 222.58 254.244 231.441L252.609 233.025C255.63 235.253 256.125 235.699 259.245 237.629C263.504 240.352 267.862 242.63 272.616 244.61C283.61 249.164 295.743 251.392 308.866 251.392C312.035 251.392 315.205 251.244 318.225 250.996C327.833 250.154 336.697 247.927 345.017 244.412C355.614 239.907 365.023 233.57 373.293 225.401C373.987 224.807 374.581 224.164 375.225 223.471C384.238 214.213 390.973 203.52 395.429 191.688C400.233 180.054 402.462 167.974 402.511 154.756V154.509C402.511 141.34 405.878 130.795 411.97 122.924C418.705 115.052 427.321 111.141 438.018 111.141C441.782 111.141 445.298 111.587 448.566 112.627C454.212 114.26 459.114 117.429 463.224 122.033C463.571 122.28 463.769 122.627 464.066 122.924C470.207 130.597 473.079 140.894 473.079 154.261V154.558C473.079 168.172 468.969 179.806 463.472 186.341C457.48 193.47 448.913 197.728 438.018 197.728C432.67 197.728 426.777 196.688 422.072 194.163C420.289 193.222 419.447 192.777 417.516 191.292C415.288 189.609 414.644 189.064 412.316 186.44C411.326 185.301 410.385 183.965 409.543 182.628C408.404 188.321 406.819 193.767 404.69 199.114C400.53 210.253 394.29 220.203 386.119 228.966C385.079 230.105 383.841 231.144 382.554 232.035L381.415 232.728L381.464 232.679Z" fill="#1363DF"/>
<path d="M56.1574 0V252.58H0V0H56.1574Z" fill="#1D1E1C"/>
<path d="M617.633 56.1399V308.72H561.475V56.1399H617.633Z" fill="#1D1E1C"/>
<path d="M757.878 154.261C757.878 167.727 755.402 180.252 750.4 191.886C745.151 204.262 738.02 214.906 728.957 223.867C718.756 233.817 708.158 240.996 697.263 245.501C685.873 250.204 673.295 252.58 659.478 252.58C645.563 252.58 632.935 250.204 621.693 245.501C610.204 240.798 599.607 233.619 589.901 223.966C580.194 214.312 573.212 203.619 568.903 191.886C563.902 180.598 561.426 168.073 561.426 154.261C561.426 140.795 563.902 128.171 568.903 116.29C573.558 104.309 580.591 93.616 590 84.3088C599.161 75.1007 609.759 68.0213 621.693 63.0212C633.083 58.4171 645.662 56.0903 659.478 56.0903C673.295 56.0903 685.774 58.4171 697.263 63.0212C709.247 67.9718 719.796 75.1007 728.957 84.3088C738.614 93.4179 745.745 104.062 750.4 116.29C755.402 128.171 757.878 140.845 757.878 154.261ZM696.223 154.261C696.223 140.548 692.905 129.805 686.269 121.933C679.436 114.062 670.472 110.102 659.429 110.102C648.386 110.102 639.125 114.062 632.588 121.933C625.952 129.557 622.634 140.35 622.634 154.261C622.634 167.826 625.804 178.519 632.192 186.242C639.175 194.262 648.237 198.222 659.379 198.222C670.522 198.222 679.584 194.212 686.567 186.242C692.955 178.222 696.124 167.578 696.124 154.261H696.223Z" fill="#1D1E1C"/>
<path d="M919.12 252.58V0H975.277V252.58H919.12Z" fill="#1D1E1C"/>
<path d="M778.924 154.459C778.924 140.993 781.4 128.468 786.402 116.834C791.651 104.458 798.782 93.814 807.845 84.8534C818.046 74.9027 828.644 67.7243 839.539 63.2193C850.929 58.5162 863.507 56.1399 877.324 56.1399C891.239 56.1399 903.867 58.5162 915.109 63.2193C926.598 67.9223 937.195 75.1007 946.901 84.7544C956.608 94.4081 963.59 105.101 967.899 116.834C972.9 128.122 975.376 140.647 975.376 154.459C975.376 167.925 972.9 180.549 967.899 192.43C963.244 204.411 956.211 215.104 946.802 224.411C937.641 233.619 927.043 240.699 915.109 245.699C903.719 250.303 891.14 252.63 877.324 252.63C863.507 252.63 851.028 250.303 839.539 245.699C827.554 240.748 817.006 233.619 807.845 224.411C798.188 215.302 791.057 204.658 786.402 192.43C781.4 180.549 778.924 167.875 778.924 154.459ZM840.579 155.053C840.579 168.667 843.897 179.361 850.532 187.183C857.366 195.005 866.33 198.916 877.373 198.916C888.417 198.916 897.677 195.005 904.214 187.183C910.85 179.608 914.168 168.865 914.168 155.053C914.168 141.587 910.998 130.993 904.61 123.27C897.628 115.3 888.565 111.339 877.423 111.339C866.28 111.339 857.218 115.3 850.235 123.27C843.847 131.241 840.678 141.835 840.678 155.053H840.579Z" fill="#1D1E1C"/>
</svg>
